<svg width="21" height="21" viewBox="0 0 21 21" fill="none" xmlns="http://www.w3.org/2000/svg">
<path d="M10.71 14.49C10.3622 14.49 10.08 14.2078 10.08 13.86V10.0304C10.08 9.40043 10.08 8.44787 8.12279 8.44787C7.13831 8.44787 6.54863 8.86451 6.14543 9.22739C6.01355 9.34583 5.84051 9.40463 5.66159 9.38531C5.48519 9.36767 5.32475 9.27695 5.21891 9.13499C5.08367 8.95355 4.72415 8.47055 3.50027 8.47055C2.99627 8.47055 2.34527 8.54363 1.68755 9.07955V13.86C1.68755 14.2078 1.40531 14.49 1.05755 14.49C0.709792 14.49 0.427552 14.2078 0.427552 13.86V7.61711C0.417472 7.50035 0.439312 7.38191 0.494752 7.27523C0.603112 7.06691 0.814792 6.92999 1.04999 6.92999C1.39775 6.92999 1.68755 7.21223 1.68755 7.55999V7.59275C2.37467 7.26179 3.01811 7.21055 3.50027 7.21055C4.45031 7.21055 5.21387 7.44491 5.77835 7.90859C6.25715 7.57595 7.03331 7.18871 8.12363 7.18871C9.59111 7.18871 11.3408 7.68179 11.3408 10.0313V13.86C11.34 14.2078 11.0578 14.49 10.71 14.49Z" fill="#DE002A"/>
<path d="M5.7246 14.49C5.37684 14.49 5.0946 14.2077 5.0946 13.86V8.75867C5.0946 8.41091 5.37684 8.12867 5.7246 8.12867C6.07236 8.12867 6.3546 8.41091 6.3546 8.75867V13.86C6.3546 14.2077 6.07236 14.49 5.7246 14.49ZM16.8 14.49C14.716 14.49 13.02 12.852 13.02 10.8393C13.02 8.82587 14.716 7.18787 16.8 7.18787C18.884 7.18787 20.58 8.82587 20.58 10.8393C20.58 11.1871 20.2978 11.4693 19.95 11.4693C19.6022 11.4693 19.32 11.1871 19.32 10.8393C19.32 9.52055 18.1894 8.44787 16.8 8.44787C15.4106 8.44787 14.28 9.52055 14.28 10.8393C14.28 12.1573 15.4106 13.23 16.8 13.23C17.4266 13.23 18.0264 13.0099 18.4909 12.6117C18.7555 12.3849 19.1537 12.4152 19.3796 12.6789C19.6064 12.9427 19.5762 13.3409 19.3124 13.5677C18.6203 14.1624 17.7274 14.49 16.8 14.49Z" fill="#DE002A"/>
<path d="M19.95 11.4694H13.65C13.3023 11.4694 13.02 11.1871 13.02 10.8394C13.02 10.4916 13.3023 10.2094 13.65 10.2094H19.95C20.2978 10.2094 20.58 10.4916 20.58 10.8394C20.58 11.1871 20.2978 11.4694 19.95 11.4694Z" fill="#DE002A"/>
</svg>
