<svg width="21" height="21" viewBox="0 0 21 21" fill="none" xmlns="http://www.w3.org/2000/svg">
<path d="M1.96875 18.375H5.25C5.49283 18.3735 5.72656 18.2824 5.90625 18.1191C6.08594 18.2824 6.31967 18.3735 6.5625 18.375H9.84375C10.1048 18.375 10.3552 18.2713 10.5398 18.0867C10.7244 17.9021 10.8281 17.6517 10.8281 17.3906V6.46733L14.9887 17.873C15.0331 17.9945 15.1009 18.1062 15.1884 18.2015C15.2759 18.2968 15.3813 18.374 15.4986 18.4285C15.6159 18.4831 15.7429 18.514 15.8722 18.5194C16.0014 18.5249 16.1305 18.5048 16.252 18.4603L19.3331 17.3348C19.5246 17.2671 19.6905 17.1419 19.8079 16.9762C19.9254 16.8106 19.9888 16.6126 19.9894 16.4095C19.9885 16.2973 19.9674 16.1861 19.927 16.0814L15.1987 3.12702C15.1051 2.88471 14.9211 2.68814 14.6855 2.57861C14.45 2.46908 14.1811 2.45513 13.9355 2.53968L10.8511 3.66515H10.8281V3.60936C10.8281 3.34829 10.7244 3.09791 10.5398 2.91331C10.3552 2.7287 10.1048 2.62499 9.84375 2.62499H6.5625C6.31967 2.62644 6.08594 2.71759 5.90625 2.88093C5.72656 2.71759 5.49283 2.62644 5.25 2.62499H1.96875C1.70768 2.62499 1.4573 2.7287 1.27269 2.91331C1.08809 3.09791 0.984375 3.34829 0.984375 3.60936V17.3906C0.984375 17.6517 1.08809 17.9021 1.27269 18.0867C1.4573 18.2713 1.70768 18.375 1.96875 18.375V18.375ZM11.0775 4.28202L14.1586 3.15655C14.1955 3.14364 14.2343 3.13698 14.2734 3.13686C14.3409 3.13689 14.4067 3.1577 14.4618 3.19645C14.517 3.2352 14.5589 3.29001 14.5819 3.35343L19.3036 16.298C19.319 16.3331 19.3269 16.3711 19.3266 16.4095C19.3265 16.477 19.3057 16.5427 19.267 16.5979C19.2282 16.6531 19.1734 16.695 19.11 16.718L16.0289 17.8434C15.9882 17.8586 15.9449 17.8655 15.9015 17.8638C15.8581 17.862 15.8155 17.8517 15.7761 17.8334C15.7368 17.8151 15.7014 17.7891 15.6722 17.7571C15.6429 17.725 15.6203 17.6874 15.6056 17.6466L10.8839 4.70202C10.8689 4.66788 10.8611 4.63103 10.8609 4.59374C10.8603 4.52575 10.8808 4.45923 10.9196 4.40339C10.9584 4.34755 11.0136 4.30514 11.0775 4.28202V4.28202ZM6.23437 3.60936C6.23437 3.52234 6.26894 3.43888 6.33048 3.37735C6.39202 3.31581 6.47548 3.28124 6.5625 3.28124H9.84375C9.93077 3.28124 10.0142 3.31581 10.0758 3.37735C10.1373 3.43888 10.1719 3.52234 10.1719 3.60936V17.3906C10.1719 17.4776 10.1373 17.5611 10.0758 17.6226C10.0142 17.6842 9.93077 17.7187 9.84375 17.7187H6.5625C6.47548 17.7187 6.39202 17.6842 6.33048 17.6226C6.26894 17.5611 6.23437 17.4776 6.23437 17.3906V3.60936ZM1.64062 3.60936C1.64062 3.52234 1.6752 3.43888 1.73673 3.37735C1.79827 3.31581 1.88173 3.28124 1.96875 3.28124H5.25C5.33702 3.28124 5.42048 3.31581 5.48202 3.37735C5.54355 3.43888 5.57812 3.52234 5.57812 3.60936V17.3906C5.57812 17.4776 5.54355 17.5611 5.48202 17.6226C5.42048 17.6842 5.33702 17.7187 5.25 17.7187H1.96875C1.88173 17.7187 1.79827 17.6842 1.73673 17.6226C1.6752 17.5611 1.64062 17.4776 1.64062 17.3906V3.60936Z" fill="black"/>
<path d="M3.60937 6.5625C3.86896 6.5625 4.12272 6.48552 4.33856 6.3413C4.5544 6.19709 4.72263 5.9921 4.82197 5.75227C4.92131 5.51244 4.9473 5.24854 4.89666 4.99394C4.84601 4.73934 4.72101 4.50548 4.53745 4.32192C4.3539 4.13837 4.12003 4.01336 3.86543 3.96272C3.61083 3.91208 3.34693 3.93807 3.1071 4.03741C2.86727 4.13675 2.66229 4.30498 2.51807 4.52081C2.37385 4.73665 2.29688 4.99041 2.29688 5.25C2.29688 5.5981 2.43516 5.93194 2.6813 6.17808C2.92744 6.42422 3.26128 6.5625 3.60937 6.5625ZM3.60937 4.59375C3.73917 4.59375 3.86605 4.63224 3.97397 4.70435C4.08189 4.77646 4.166 4.87895 4.21567 4.99886C4.26534 5.11878 4.27834 5.25073 4.25302 5.37803C4.22769 5.50533 4.16519 5.62226 4.07341 5.71404C3.98164 5.80582 3.8647 5.86832 3.7374 5.89364C3.6101 5.91896 3.47815 5.90597 3.35824 5.8563C3.23833 5.80663 3.13583 5.72251 3.06372 5.61459C2.99161 5.50667 2.95312 5.37979 2.95312 5.25C2.95312 5.07595 3.02227 4.90903 3.14534 4.78596C3.26841 4.66289 3.43533 4.59375 3.60937 4.59375V4.59375ZM4.26562 7.875C4.1786 7.875 4.09514 7.90957 4.03361 7.97111C3.97207 8.03264 3.9375 8.1161 3.9375 8.20313V16.0781C3.9375 16.1652 3.97207 16.2486 4.03361 16.3101C4.09514 16.3717 4.1786 16.4063 4.26562 16.4063C4.35265 16.4063 4.43611 16.3717 4.49764 16.3101C4.55918 16.2486 4.59375 16.1652 4.59375 16.0781V8.20313C4.59375 8.1161 4.55918 8.03264 4.49764 7.97111C4.43611 7.90957 4.35265 7.875 4.26562 7.875ZM2.95312 7.875C2.8661 7.875 2.78264 7.90957 2.72111 7.97111C2.65957 8.03264 2.625 8.1161 2.625 8.20313V16.0781C2.625 16.1652 2.65957 16.2486 2.72111 16.3101C2.78264 16.3717 2.8661 16.4063 2.95312 16.4063C3.04015 16.4063 3.12361 16.3717 3.18514 16.3101C3.24668 16.2486 3.28125 16.1652 3.28125 16.0781V8.20313C3.28125 8.1161 3.24668 8.03264 3.18514 7.97111C3.12361 7.90957 3.04015 7.875 2.95312 7.875ZM8.20312 6.5625C8.46271 6.5625 8.71647 6.48552 8.93231 6.3413C9.14815 6.19709 9.31638 5.9921 9.41572 5.75227C9.51506 5.51244 9.54105 5.24854 9.49041 4.99394C9.43976 4.73934 9.31476 4.50548 9.1312 4.32192C8.94765 4.13837 8.71378 4.01336 8.45918 3.96272C8.20458 3.91208 7.94068 3.93807 7.70085 4.03741C7.46102 4.13675 7.25604 4.30498 7.11182 4.52081C6.9676 4.73665 6.89062 4.99041 6.89062 5.25C6.89062 5.5981 7.02891 5.93194 7.27505 6.17808C7.52119 6.42422 7.85503 6.5625 8.20312 6.5625ZM8.20312 4.59375C8.33292 4.59375 8.4598 4.63224 8.56772 4.70435C8.67564 4.77646 8.75975 4.87895 8.80942 4.99886C8.85909 5.11878 8.87209 5.25073 8.84676 5.37803C8.82144 5.50533 8.75894 5.62226 8.66716 5.71404C8.57538 5.80582 8.45845 5.86832 8.33115 5.89364C8.20385 5.91896 8.0719 5.90597 7.95199 5.8563C7.83207 5.80663 7.72958 5.72251 7.65747 5.61459C7.58536 5.50667 7.54687 5.37979 7.54687 5.25C7.54687 5.07595 7.61602 4.90903 7.73909 4.78596C7.86216 4.66289 8.02908 4.59375 8.20312 4.59375V4.59375ZM8.85937 7.875C8.77235 7.875 8.68889 7.90957 8.62735 7.97111C8.56582 8.03264 8.53125 8.1161 8.53125 8.20313V16.0781C8.53125 16.1652 8.56582 16.2486 8.62735 16.3101C8.68889 16.3717 8.77235 16.4063 8.85937 16.4063C8.9464 16.4063 9.02986 16.3717 9.09139 16.3101C9.15293 16.2486 9.1875 16.1652 9.1875 16.0781V8.20313C9.1875 8.1161 9.15293 8.03264 9.09139 7.97111C9.02986 7.90957 8.9464 7.875 8.85937 7.875ZM13.9978 8.45578C13.9665 8.37631 13.9054 8.31218 13.8276 8.27703C13.7497 8.24187 13.6612 8.23846 13.5809 8.26751C13.5006 8.29656 13.4348 8.3558 13.3974 8.43262C13.3601 8.50944 13.3542 8.59779 13.3809 8.67891L16.0781 16.0781C16.1011 16.1415 16.143 16.1964 16.1982 16.2351C16.2533 16.2739 16.3191 16.2947 16.3866 16.2947C16.425 16.295 16.463 16.2872 16.4981 16.2717C16.5799 16.2421 16.6466 16.1812 16.6835 16.1025C16.7204 16.0237 16.7246 15.9335 16.695 15.8517L13.9978 8.45578ZM13.2923 6.89063C13.4467 6.89061 13.5999 6.86397 13.7452 6.81188C14.0357 6.70642 14.2797 6.5018 14.4342 6.23406C14.5887 5.96632 14.6437 5.65265 14.5896 5.34831C14.5355 5.04398 14.3757 4.76851 14.1384 4.57045C13.9011 4.37238 13.6014 4.26444 13.2923 4.26563C13.1391 4.26595 12.987 4.29259 12.8428 4.34438C12.5525 4.44974 12.3087 4.65409 12.1542 4.92148C11.9997 5.18888 11.9444 5.50219 11.9981 5.80632C12.0518 6.11044 12.211 6.38588 12.4477 6.58421C12.6844 6.78254 12.9835 6.89104 13.2923 6.89063ZM13.0692 4.96125C13.2324 4.90198 13.4124 4.9098 13.5699 4.98298C13.7273 5.05617 13.8493 5.18876 13.9092 5.35172C13.9376 5.42382 13.9521 5.50064 13.9519 5.57813C13.9518 5.71299 13.9102 5.84457 13.8327 5.95495C13.7552 6.06533 13.6456 6.14915 13.5187 6.195C13.3551 6.2541 13.1748 6.24583 13.0172 6.172C12.8597 6.09816 12.738 5.96481 12.6787 5.80125C12.6511 5.7301 12.6366 5.65448 12.6361 5.57813C12.6341 5.44158 12.6748 5.30782 12.7524 5.19548C12.83 5.08314 12.9408 4.99782 13.0692 4.95141V4.96125ZM14.6147 8.22938L17.3152 15.6286C17.3386 15.6914 17.3808 15.7455 17.4359 15.7836C17.491 15.8218 17.5565 15.8421 17.6236 15.8419C17.6616 15.8418 17.6994 15.8352 17.7352 15.8222C17.8169 15.7926 17.8836 15.7317 17.9205 15.6529C17.9574 15.5742 17.9616 15.484 17.932 15.4022L15.2316 8.00625C15.2002 7.92678 15.1392 7.86265 15.0613 7.8275C14.9835 7.79234 14.895 7.78893 14.8147 7.81798C14.7343 7.84703 14.6685 7.90626 14.6312 7.98308C14.5938 8.05991 14.5879 8.14826 14.6147 8.22938ZM7.54687 7.875C7.45985 7.875 7.37639 7.90957 7.31485 7.97111C7.25332 8.03264 7.21875 8.1161 7.21875 8.20313V16.0781C7.21875 16.1652 7.25332 16.2486 7.31485 16.3101C7.37639 16.3717 7.45985 16.4063 7.54687 16.4063C7.6339 16.4063 7.71736 16.3717 7.77889 16.3101C7.84043 16.2486 7.875 16.1652 7.875 16.0781V8.20313C7.875 8.1161 7.84043 8.03264 7.77889 7.97111C7.71736 7.90957 7.6339 7.875 7.54687 7.875Z" fill="black"/>
</svg>
