<svg width="29" height="25" viewBox="0 0 29 25" fill="none" xmlns="http://www.w3.org/2000/svg">
<path d="M25.1484 13.5417C24.974 13.4174 24.7625 13.3378 24.5382 13.312C24.3139 13.2863 24.0857 13.3153 23.8796 13.3958C22.6019 13.8999 21.2127 14.1593 19.8075 14.1563C17.2082 14.1536 14.7156 13.2651 12.8731 11.6845C11.0306 10.1039 9.98765 7.9595 9.97171 5.71877C9.97722 5.01651 10.0786 4.31725 10.2738 3.63543C10.3152 3.4537 10.2997 3.26574 10.2288 3.0909C10.1579 2.91607 10.0342 2.76069 9.8705 2.64078C9.70678 2.52086 9.50893 2.44074 9.29734 2.40868C9.08574 2.37661 8.86806 2.39376 8.66671 2.45835C6.77243 3.19263 5.12577 4.32997 3.88142 5.76354C2.63706 7.1971 1.83585 8.87983 1.55307 10.6536C1.27028 12.4275 1.51519 14.2341 2.2648 15.9039C3.01441 17.5737 4.2441 19.0519 5.83836 20.1995C7.43262 21.3471 9.33912 22.1264 11.3787 22.4644C13.4184 22.8024 15.5242 22.6878 17.4984 22.1315C19.4725 21.5752 21.2502 20.5954 22.6645 19.2841C24.0788 17.9729 25.0832 16.3732 25.5834 14.6354C25.6443 14.4365 25.6355 14.2264 25.5581 14.0317C25.4807 13.8371 25.3381 13.6666 25.1484 13.5417V13.5417ZM13.6692 20.5104C11.6413 20.4981 9.66745 19.9457 8.01782 18.9289C6.3682 17.9121 5.12347 16.4806 4.45408 14.8304C3.78468 13.1801 3.72334 11.3919 4.27845 9.71044C4.83356 8.029 5.97799 6.53658 7.55504 5.43752V5.71877C7.55824 8.51927 8.85015 11.2043 11.1472 13.1845C13.4443 15.1648 16.559 16.2785 19.8075 16.2813C20.6605 16.284 21.5113 16.2071 22.345 16.0521C21.5112 17.412 20.2624 18.5498 18.7335 19.3429C17.2046 20.1359 15.4535 20.554 13.6692 20.5521V20.5104Z" fill="black"/>
</svg>
