<svg width="21" height="18" viewBox="0 0 21 18" fill="none" xmlns="http://www.w3.org/2000/svg">
<path fill-rule="evenodd" clip-rule="evenodd" d="M3.55637 0.510798L3.03947 1.02181L2.94737 8.18483C2.86245 14.79 2.83021 15.3536 2.53289 15.4192C2.23245 15.4857 2.21053 15.1085 2.21053 9.86292C2.21053 4.51776 2.19211 4.21429 1.84211 3.81192C1.39945 3.30303 0.960474 3.27444 0.4095 3.71811C0.00313157 4.04508 0 4.09316 0 9.8805C0 16.351 0.0722106 16.8231 1.18263 17.6013C1.71666 17.9757 2.26321 17.9993 10.4632 17.9999C20.0799 18.0007 19.9205 18.0217 20.6389 16.6668C20.9775 16.0287 20.9987 15.555 20.9993 8.61346L21 1.23803L20.4616 0.619014L19.9231 0H11.9982H4.07326L3.55637 0.510798ZM18.7895 9.00037V15.4595H11.9737H5.15789V9.00037V2.54128H11.9737H18.7895V9.00037ZM7.63645 6.44956C7.10942 7.05523 7.07755 7.35447 7.47103 8.00016C7.75305 8.46331 7.82582 8.47094 11.9737 8.47094C16.1216 8.47094 16.1943 8.46331 16.4763 8.00016C16.8698 7.35447 16.8379 7.05523 16.3109 6.44956C15.8596 5.9305 15.853 5.92965 11.9737 5.92965C8.09439 5.92965 8.08776 5.9305 7.63645 6.44956ZM7.47103 10.0006C7.07755 10.6463 7.10942 10.9455 7.63645 11.5512C8.08776 12.0702 8.09439 12.0711 11.9737 12.0711H15.8589L16.3225 11.538C16.6635 11.1461 16.7527 10.8803 16.66 10.5321C16.3927 9.53001 16.3918 9.5298 11.9615 9.5298C7.82618 9.5298 7.75305 9.53743 7.47103 10.0006Z" fill="black"/>
</svg>
