<svg width="29" height="25" viewBox="0 0 29 25" fill="none" xmlns="http://www.w3.org/2000/svg">
<path d="M29 7.78747e-07C29 7.78747e-07 18.1409 -0.0218922 9.67513 7.27586C9.29256 7.60941 8.94454 7.97116 8.63506 8.35696C7.1342 8.25375 4.83394 8.29129 3.66083 9.30463C0.91551 11.6712 0 15.6161 0 15.6161L6.40252 14.828V16.3522L10.0307 19.4798H11.7988L10.8833 25C10.8833 25 15.4597 24.2108 18.205 21.8442C19.3793 20.8319 19.4228 18.8501 19.3043 17.5563C19.7521 17.2898 20.1718 16.9898 20.5584 16.6597C29.0242 9.36197 29 7.78747e-07 29 7.78747e-07V7.78747e-07ZM16.9303 8.31943C16.923 8.04177 16.9801 7.76564 17.0983 7.50727C17.2166 7.2489 17.3935 7.0135 17.6187 6.81487C17.8439 6.61625 18.1128 6.45842 18.4098 6.35063C18.7067 6.24285 19.0256 6.18729 19.3478 6.18722C19.67 6.18715 19.989 6.24257 20.286 6.35023C20.583 6.45788 20.852 6.6156 21.0774 6.81413C21.3027 7.01265 21.4797 7.24798 21.5981 7.5063C21.7165 7.76462 21.7738 8.04072 21.7666 8.31839C21.7527 8.86318 21.4918 9.38161 21.04 9.76269C20.5881 10.1438 19.9812 10.3572 19.349 10.3574C18.7169 10.3575 18.1098 10.1443 17.6578 9.76342C17.2057 9.38253 16.9446 8.86422 16.9303 8.31943Z" fill="black"/>
</svg>
