<svg width="30" height="25" viewBox="0 0 30 25" fill="none" xmlns="http://www.w3.org/2000/svg">
<path d="M4.5 12.5C4.5 12.1685 4.34196 11.8505 4.06066 11.6161C3.77936 11.3817 3.39782 11.25 3 11.25H1.5C1.10218 11.25 0.720644 11.3817 0.43934 11.6161C0.158035 11.8505 0 12.1685 0 12.5C0 12.8315 0.158035 13.1495 0.43934 13.3839C0.720644 13.6183 1.10218 13.75 1.5 13.75H3C3.39782 13.75 3.77936 13.6183 4.06066 13.3839C4.34196 13.1495 4.5 12.8315 4.5 12.5ZM5.46 18.75L4.395 19.6375C4.11562 19.8717 3.95881 20.1885 3.95881 20.5188C3.95881 20.849 4.11562 21.1658 4.395 21.4C4.67604 21.6328 5.05622 21.7635 5.4525 21.7635C5.84878 21.7635 6.22896 21.6328 6.51 21.4L7.575 20.5125C7.82074 20.2734 7.94915 19.9658 7.93457 19.6512C7.91999 19.3366 7.76349 19.0382 7.49635 18.8155C7.2292 18.5929 6.87109 18.4625 6.49358 18.4504C6.11607 18.4382 5.74695 18.5452 5.46 18.75V18.75ZM15 3.75C15.3978 3.75 15.7794 3.6183 16.0607 3.38388C16.342 3.14946 16.5 2.83152 16.5 2.5V1.25C16.5 0.918479 16.342 0.600537 16.0607 0.366116C15.7794 0.131696 15.3978 0 15 0C14.6022 0 14.2206 0.131696 13.9393 0.366116C13.658 0.600537 13.5 0.918479 13.5 1.25V2.5C13.5 2.83152 13.658 3.14946 13.9393 3.38388C14.2206 3.6183 14.6022 3.75 15 3.75ZM23.49 6.675C23.8835 6.67362 24.2606 6.54343 24.54 6.3125L25.605 5.425C25.762 5.31294 25.8896 5.17504 25.9796 5.01996C26.0696 4.86488 26.1202 4.69597 26.1282 4.52382C26.1362 4.35167 26.1014 4.18 26.026 4.0196C25.9505 3.85919 25.8362 3.71351 25.69 3.59169C25.5438 3.46987 25.369 3.37455 25.1765 3.3117C24.984 3.24886 24.778 3.21985 24.5714 3.2265C24.3648 3.23315 24.1621 3.27531 23.976 3.35034C23.7899 3.42537 23.6245 3.53165 23.49 3.6625L22.5 4.55C22.2206 4.7842 22.0638 5.10102 22.0638 5.43125C22.0638 5.76148 22.2206 6.0783 22.5 6.3125C22.7644 6.5317 23.1174 6.66094 23.49 6.675V6.675ZM5.49 6.3125C5.76939 6.54343 6.14649 6.67362 6.54 6.675C6.73741 6.67595 6.9331 6.64442 7.11586 6.58221C7.29862 6.52001 7.46484 6.42835 7.605 6.3125C7.88438 6.0783 8.04119 5.76148 8.04119 5.43125C8.04119 5.10102 7.88438 4.7842 7.605 4.55L6.54 3.6625C6.40113 3.54513 6.23587 3.45171 6.05367 3.38756C5.87147 3.32341 5.6759 3.2898 5.47811 3.28864C5.28032 3.28747 5.08419 3.31879 4.90093 3.38079C4.71766 3.4428 4.55084 3.53427 4.41 3.65C4.26916 3.76573 4.15705 3.90344 4.08007 4.05527C4.00309 4.20711 3.96276 4.37009 3.96136 4.53491C3.95855 4.86779 4.11453 5.18796 4.395 5.425L5.49 6.3125ZM28.5 11.25H27C26.6022 11.25 26.2206 11.3817 25.9393 11.6161C25.658 11.8505 25.5 12.1685 25.5 12.5C25.5 12.8315 25.658 13.1495 25.9393 13.3839C26.2206 13.6183 26.6022 13.75 27 13.75H28.5C28.8978 13.75 29.2794 13.6183 29.5607 13.3839C29.842 13.1495 30 12.8315 30 12.5C30 12.1685 29.842 11.8505 29.5607 11.6161C29.2794 11.3817 28.8978 11.25 28.5 11.25ZM24.54 18.75C24.255 18.6179 23.9261 18.5668 23.6032 18.6044C23.2802 18.642 22.9808 18.7663 22.7502 18.9585C22.5196 19.1507 22.3705 19.4002 22.3253 19.6693C22.2802 19.9385 22.3415 20.2125 22.5 20.45L23.565 21.3375C23.846 21.5703 24.2262 21.701 24.6225 21.701C25.0188 21.701 25.399 21.5703 25.68 21.3375C25.9594 21.1033 26.1162 20.7865 26.1162 20.4562C26.1162 20.126 25.9594 19.8092 25.68 19.575L24.54 18.75ZM15 5.625C13.3683 5.625 11.7733 6.02821 10.4165 6.78365C9.05984 7.53908 8.00242 8.61281 7.37799 9.86905C6.75357 11.1253 6.59019 12.5076 6.90852 13.8412C7.22685 15.1749 8.01259 16.3999 9.16637 17.3614C10.3202 18.3228 11.7902 18.9776 13.3905 19.2429C14.9908 19.5082 16.6496 19.372 18.1571 18.8517C19.6646 18.3313 20.9531 17.4501 21.8596 16.3195C22.7661 15.189 23.25 13.8597 23.25 12.5C23.246 10.6777 22.3756 8.93089 20.8293 7.64229C19.2829 6.35369 17.1868 5.6283 15 5.625ZM15 16.875C13.9616 16.875 12.9466 16.6184 12.0833 16.1377C11.2199 15.6569 10.547 14.9737 10.1496 14.1742C9.75227 13.3748 9.6483 12.4951 9.85088 11.6465C10.0534 10.7978 10.5535 10.0183 11.2877 9.40641C12.0219 8.79455 12.9574 8.37787 13.9758 8.20906C14.9942 8.04025 16.0498 8.12689 17.0091 8.45803C17.9684 8.78916 18.7883 9.34991 19.3652 10.0694C19.9421 10.7888 20.25 11.6347 20.25 12.5C20.25 13.6603 19.6969 14.7731 18.7123 15.5936C17.7277 16.4141 16.3924 16.875 15 16.875V16.875ZM15 21.25C14.6022 21.25 14.2206 21.3817 13.9393 21.6161C13.658 21.8505 13.5 22.1685 13.5 22.5V23.75C13.5 24.0815 13.658 24.3995 13.9393 24.6339C14.2206 24.8683 14.6022 25 15 25C15.3978 25 15.7794 24.8683 16.0607 24.6339C16.342 24.3995 16.5 24.0815 16.5 23.75V22.5C16.5 22.1685 16.342 21.8505 16.0607 21.6161C15.7794 21.3817 15.3978 21.25 15 21.25Z" fill="white"/>
</svg>
