<svg width="215" height="220" viewBox="0 0 215 220" fill="none" xmlns="http://www.w3.org/2000/svg">
<g clip-path="url(#clip0_101_19)">
<path d="M202.116 62.0063L141.498 62.0063C140.346 62.0063 139.241 61.5948 138.426 60.8622C137.612 60.1297 137.154 59.1361 137.154 58.1001V18.4207C137.154 17.3852 137.612 16.3921 138.426 15.6599C139.24 14.9276 140.345 14.5163 141.496 14.5163L202.118 14.5163C203.27 14.5163 204.375 14.9276 205.189 15.6599C206.003 16.3921 206.461 17.3852 206.461 18.4207V58.1001C206.461 59.1361 206.003 60.1297 205.188 60.8622C204.374 61.5948 203.269 62.0063 202.116 62.0063Z" fill="white"/>
<path d="M136.973 58.0998V18.4205C136.973 17.3416 137.449 16.307 138.298 15.5442C139.146 14.7814 140.297 14.3528 141.496 14.3528H202.118C203.318 14.3528 204.469 14.7814 205.317 15.5442C206.166 16.307 206.642 17.3416 206.642 18.4205V58.0998C206.642 58.6342 206.525 59.1634 206.298 59.6571C206.07 60.1509 205.737 60.5995 205.317 60.9774C204.896 61.3553 204.397 61.655 203.848 61.8595C203.299 62.064 202.711 62.1693 202.116 62.1693H141.498C140.904 62.1693 140.315 62.064 139.766 61.8595C139.217 61.655 138.718 61.3553 138.298 60.9774C137.878 60.5995 137.544 60.1509 137.317 59.6571C137.09 59.1634 136.973 58.6342 136.973 58.0998ZM141.496 14.6792C140.393 14.6795 139.335 15.0738 138.555 15.7754C137.775 16.477 137.337 17.4284 137.337 18.4205V58.0998C137.337 59.0925 137.775 60.0446 138.556 60.7466C139.337 61.4485 140.395 61.8429 141.5 61.8429H202.116C203.22 61.8429 204.279 61.4485 205.06 60.7466C205.841 60.0446 206.279 59.0925 206.279 58.0998V18.4205C206.279 17.4282 205.841 16.4766 205.061 15.775C204.28 15.0734 203.222 14.6792 202.118 14.6792H141.496Z" fill="#292A2E"/>
<path d="M137.154 18.4199V21.7261H206.46V18.4199C206.46 17.3844 206.003 16.3913 205.188 15.6591C204.374 14.9269 203.269 14.5155 202.118 14.5155H141.496C140.926 14.5155 140.361 14.6165 139.835 14.8127C139.308 15.0089 138.829 15.2965 138.426 15.6591C138.023 16.0217 137.703 16.4521 137.485 16.9258C137.267 17.3995 137.154 17.9072 137.154 18.4199Z" fill="#292A2E"/>
<path d="M160.823 27.0704H157.553C157.514 27.0704 157.478 27.0567 157.45 27.0322C157.423 27.0077 157.408 26.9745 157.408 26.9398C157.408 26.9052 157.423 26.872 157.45 26.8475C157.478 26.823 157.514 26.8093 157.553 26.8093H160.823C160.862 26.8093 160.899 26.823 160.926 26.8475C160.953 26.872 160.969 26.9052 160.969 26.9398C160.969 26.9745 160.953 27.0077 160.926 27.0322C160.899 27.0567 160.862 27.0704 160.823 27.0704Z" fill="#292A2E"/>
<path d="M155.195 27.0704H153.957C153.919 27.0704 153.882 27.0567 153.854 27.0322C153.827 27.0077 153.812 26.9745 153.812 26.9398C153.812 26.9052 153.827 26.872 153.854 26.8475C153.882 26.823 153.919 26.8093 153.957 26.8093H155.195C155.233 26.8093 155.27 26.823 155.297 26.8475C155.324 26.872 155.34 26.9052 155.34 26.9398C155.34 26.9745 155.324 27.0077 155.297 27.0322C155.27 27.0567 155.233 27.0704 155.195 27.0704Z" fill="#367CFF"/>
<path d="M155.195 29.4258H153.957C153.919 29.4258 153.882 29.4121 153.854 29.3876C153.827 29.3631 153.812 29.3299 153.812 29.2953C153.812 29.2606 153.827 29.2274 153.854 29.2029C153.882 29.1784 153.919 29.1647 153.957 29.1647H155.195C155.233 29.1647 155.27 29.1784 155.297 29.2029C155.324 29.2274 155.34 29.2606 155.34 29.2953C155.34 29.3299 155.324 29.3631 155.297 29.3876C155.27 29.4121 155.233 29.4258 155.195 29.4258Z" fill="#367CFF"/>
<path d="M155.195 31.7812H153.957C153.919 31.7812 153.882 31.7675 153.854 31.743C153.827 31.7185 153.812 31.6853 153.812 31.6506C153.812 31.616 153.827 31.5828 153.854 31.5583C153.882 31.5338 153.919 31.5201 153.957 31.5201H155.195C155.233 31.5201 155.27 31.5338 155.297 31.5583C155.324 31.5828 155.34 31.616 155.34 31.6506C155.34 31.6853 155.324 31.7185 155.297 31.743C155.27 31.7675 155.233 31.7812 155.195 31.7812Z" fill="#367CFF"/>
<path d="M155.195 34.1366H153.957C153.919 34.1366 153.882 34.1229 153.854 34.0984C153.827 34.0739 153.812 34.0407 153.812 34.0061C153.812 33.9714 153.827 33.9382 153.854 33.9137C153.882 33.8892 153.919 33.8755 153.957 33.8755H155.195C155.233 33.8755 155.27 33.8892 155.297 33.9137C155.324 33.9382 155.34 33.9714 155.34 34.0061C155.34 34.0407 155.324 34.0739 155.297 34.0984C155.27 34.1229 155.233 34.1366 155.195 34.1366Z" fill="#367CFF"/>
<path d="M155.195 36.492H153.957C153.919 36.492 153.882 36.4783 153.854 36.4538C153.827 36.4293 153.812 36.3961 153.812 36.3615C153.812 36.3268 153.827 36.2936 153.854 36.2691C153.882 36.2446 153.919 36.2309 153.957 36.2309H155.195C155.233 36.2309 155.27 36.2446 155.297 36.2691C155.324 36.2936 155.34 36.3268 155.34 36.3615C155.34 36.3961 155.324 36.4293 155.297 36.4538C155.27 36.4783 155.233 36.492 155.195 36.492Z" fill="#367CFF"/>
<path d="M155.195 38.8474H153.957C153.919 38.8474 153.882 38.8337 153.854 38.8092C153.827 38.7847 153.812 38.7515 153.812 38.7169C153.812 38.6822 153.827 38.649 153.854 38.6245C153.882 38.6 153.919 38.5863 153.957 38.5863H155.195C155.233 38.5863 155.27 38.6 155.297 38.6245C155.324 38.649 155.34 38.6822 155.34 38.7169C155.34 38.7515 155.324 38.7847 155.297 38.8092C155.27 38.8337 155.233 38.8474 155.195 38.8474Z" fill="#367CFF"/>
<path d="M155.195 41.2028H153.957C153.919 41.2028 153.882 41.1891 153.854 41.1646C153.827 41.1401 153.812 41.1069 153.812 41.0722C153.812 41.0376 153.827 41.0044 153.854 40.9799C153.882 40.9554 153.919 40.9417 153.957 40.9417H155.195C155.233 40.9417 155.27 40.9554 155.297 40.9799C155.324 41.0044 155.34 41.0376 155.34 41.0722C155.34 41.1069 155.324 41.1401 155.297 41.1646C155.27 41.1891 155.233 41.2028 155.195 41.2028Z" fill="#367CFF"/>
<path d="M155.195 43.5582H153.957C153.919 43.5582 153.882 43.5445 153.854 43.52C153.827 43.4955 153.812 43.4623 153.812 43.4277C153.812 43.393 153.827 43.3598 153.854 43.3353C153.882 43.3108 153.919 43.2971 153.957 43.2971H155.195C155.233 43.2971 155.27 43.3108 155.297 43.3353C155.324 43.3598 155.34 43.393 155.34 43.4277C155.34 43.4623 155.324 43.4955 155.297 43.52C155.27 43.5445 155.233 43.5582 155.195 43.5582Z" fill="#367CFF"/>
<path d="M155.195 45.9136H153.957C153.919 45.9136 153.882 45.8999 153.854 45.8754C153.827 45.8509 153.812 45.8177 153.812 45.7831C153.812 45.7484 153.827 45.7152 153.854 45.6907C153.882 45.6663 153.919 45.6525 153.957 45.6525H155.195C155.233 45.6525 155.27 45.6663 155.297 45.6907C155.324 45.7152 155.34 45.7484 155.34 45.7831C155.34 45.8177 155.324 45.8509 155.297 45.8754C155.27 45.8999 155.233 45.9136 155.195 45.9136Z" fill="#367CFF"/>
<path d="M155.195 48.269H153.957C153.919 48.269 153.882 48.2553 153.854 48.2308C153.827 48.2063 153.812 48.1731 153.812 48.1385C153.812 48.1038 153.827 48.0706 153.854 48.0461C153.882 48.0216 153.919 48.0079 153.957 48.0079H155.195C155.233 48.0079 155.27 48.0216 155.297 48.0461C155.324 48.0706 155.34 48.1038 155.34 48.1385C155.34 48.1731 155.324 48.2063 155.297 48.2308C155.27 48.2553 155.233 48.269 155.195 48.269Z" fill="#367CFF"/>
<path d="M155.195 50.6244H153.957C153.919 50.6244 153.882 50.6107 153.854 50.5862C153.827 50.5617 153.812 50.5285 153.812 50.4939C153.812 50.4592 153.827 50.426 153.854 50.4015C153.882 50.3771 153.919 50.3633 153.957 50.3633H155.195C155.233 50.3633 155.27 50.3771 155.297 50.4015C155.324 50.426 155.34 50.4592 155.34 50.4939C155.34 50.5285 155.324 50.5617 155.297 50.5862C155.27 50.6107 155.233 50.6244 155.195 50.6244Z" fill="#367CFF"/>
<path d="M155.195 52.9798H153.957C153.919 52.9798 153.882 52.9661 153.854 52.9416C153.827 52.9171 153.812 52.8839 153.812 52.8493C153.812 52.8146 153.827 52.7814 153.854 52.7569C153.882 52.7325 153.919 52.7187 153.957 52.7187H155.195C155.233 52.7187 155.27 52.7325 155.297 52.7569C155.324 52.7814 155.34 52.8146 155.34 52.8493C155.34 52.8839 155.324 52.9171 155.297 52.9416C155.27 52.9661 155.233 52.9798 155.195 52.9798Z" fill="#367CFF"/>
<path d="M155.195 55.3352H153.957C153.919 55.3352 153.882 55.3215 153.854 55.297C153.827 55.2725 153.812 55.2393 153.812 55.2047C153.812 55.17 153.827 55.1368 153.854 55.1123C153.882 55.0879 153.919 55.0741 153.957 55.0741H155.195C155.233 55.0741 155.27 55.0879 155.297 55.1123C155.324 55.1368 155.34 55.17 155.34 55.2047C155.34 55.2393 155.324 55.2725 155.297 55.297C155.27 55.3215 155.233 55.3352 155.195 55.3352Z" fill="#367CFF"/>
<path d="M155.195 57.6909H153.957C153.919 57.6909 153.882 57.6771 153.854 57.6527C153.827 57.6282 153.812 57.595 153.812 57.5603C153.812 57.5257 153.827 57.4925 153.854 57.468C153.882 57.4435 153.919 57.4298 153.957 57.4298H155.195C155.233 57.4298 155.27 57.4435 155.297 57.468C155.324 57.4925 155.34 57.5257 155.34 57.5603C155.34 57.595 155.324 57.6282 155.297 57.6527C155.27 57.6771 155.233 57.6909 155.195 57.6909Z" fill="#367CFF"/>
<path d="M163.437 29.4258H160.457C160.419 29.4258 160.382 29.4121 160.354 29.3876C160.327 29.3631 160.312 29.3299 160.312 29.2953C160.312 29.2606 160.327 29.2274 160.354 29.2029C160.382 29.1784 160.419 29.1647 160.457 29.1647H163.437C163.476 29.1647 163.513 29.1784 163.54 29.2029C163.567 29.2274 163.582 29.2606 163.582 29.2953C163.582 29.3299 163.567 29.3631 163.54 29.3876C163.513 29.4121 163.476 29.4258 163.437 29.4258Z" fill="#292A2E"/>
<path d="M160.823 43.5582H157.553C157.514 43.5582 157.478 43.5445 157.45 43.52C157.423 43.4955 157.408 43.4623 157.408 43.4277C157.408 43.393 157.423 43.3598 157.45 43.3353C157.478 43.3108 157.514 43.2971 157.553 43.2971H160.823C160.862 43.2971 160.899 43.3108 160.926 43.3353C160.953 43.3598 160.969 43.393 160.969 43.4277C160.969 43.4623 160.953 43.4955 160.926 43.52C160.899 43.5445 160.862 43.5582 160.823 43.5582Z" fill="#292A2E"/>
<path d="M163.437 45.9136H160.457C160.419 45.9136 160.382 45.8999 160.354 45.8754C160.327 45.8509 160.312 45.8177 160.312 45.7831C160.312 45.7484 160.327 45.7152 160.354 45.6907C160.382 45.6662 160.419 45.6525 160.457 45.6525H163.437C163.476 45.6525 163.513 45.6662 163.54 45.6907C163.567 45.7152 163.582 45.7484 163.582 45.7831C163.582 45.8177 163.567 45.8509 163.54 45.8754C163.513 45.8999 163.476 45.9136 163.437 45.9136Z" fill="#292A2E"/>
<path d="M180.281 31.7812H162.49C162.452 31.7812 162.415 31.7675 162.387 31.743C162.36 31.7185 162.345 31.6853 162.345 31.6506C162.345 31.616 162.36 31.5828 162.387 31.5583C162.415 31.5338 162.452 31.5201 162.49 31.5201H180.281C180.32 31.5201 180.357 31.5338 180.384 31.5583C180.411 31.5828 180.426 31.616 180.426 31.6506C180.426 31.6853 180.411 31.7185 180.384 31.743C180.357 31.7675 180.32 31.7812 180.281 31.7812Z" fill="#292A2E"/>
<path d="M195.989 31.7812H183.425C183.387 31.7812 183.35 31.7675 183.323 31.743C183.295 31.7185 183.28 31.6853 183.28 31.6506C183.28 31.616 183.295 31.5828 183.323 31.5583C183.35 31.5338 183.387 31.5201 183.425 31.5201H195.989C196.027 31.5201 196.064 31.5338 196.091 31.5583C196.119 31.5828 196.134 31.616 196.134 31.6506C196.134 31.6853 196.119 31.7185 196.091 31.743C196.064 31.7675 196.027 31.7812 195.989 31.7812Z" fill="#0CBC8B"/>
<path d="M202.731 31.7812H198.88C198.842 31.7812 198.805 31.7675 198.777 31.743C198.75 31.7185 198.735 31.6853 198.735 31.6506C198.735 31.616 198.75 31.5828 198.777 31.5583C198.805 31.5338 198.842 31.5201 198.88 31.5201H202.731C202.769 31.5201 202.806 31.5338 202.834 31.5583C202.861 31.5828 202.876 31.616 202.876 31.6506C202.876 31.6853 202.861 31.7185 202.834 31.743C202.806 31.7675 202.769 31.7812 202.731 31.7812Z" fill="#292A2E"/>
<path d="M188.993 36.492H162.49C162.452 36.492 162.415 36.4783 162.387 36.4538C162.36 36.4293 162.345 36.3961 162.345 36.3615C162.345 36.3268 162.36 36.2936 162.387 36.2691C162.415 36.2446 162.452 36.2309 162.49 36.2309H188.993C189.032 36.2309 189.069 36.2446 189.096 36.2691C189.123 36.2936 189.139 36.3268 189.139 36.3615C189.139 36.3961 189.123 36.4293 189.096 36.4538C189.069 36.4783 189.032 36.492 188.993 36.492Z" fill="#292A2E"/>
<path d="M195.989 36.492H192.138C192.099 36.492 192.062 36.4783 192.035 36.4538C192.008 36.4293 191.993 36.3961 191.993 36.3615C191.993 36.3268 192.008 36.2936 192.035 36.2691C192.062 36.2446 192.099 36.2309 192.138 36.2309H195.989C196.027 36.2309 196.064 36.2446 196.091 36.2691C196.119 36.2936 196.134 36.3268 196.134 36.3615C196.134 36.3961 196.119 36.4293 196.091 36.4538C196.064 36.4783 196.027 36.492 195.989 36.492Z" fill="#367CFF"/>
<path d="M165.76 34.1366H162.49C162.452 34.1366 162.415 34.1229 162.387 34.0984C162.36 34.0739 162.345 34.0407 162.345 34.0061C162.345 33.9714 162.36 33.9382 162.387 33.9137C162.415 33.8892 162.452 33.8755 162.49 33.8755H165.76C165.799 33.8755 165.836 33.8892 165.863 33.9137C165.89 33.9382 165.906 33.9714 165.906 34.0061C165.906 34.0407 165.89 34.0739 165.863 34.0984C165.836 34.1229 165.799 34.1366 165.76 34.1366Z" fill="#0CBC8B"/>
<path d="M187.276 34.1366H168.905C168.866 34.1366 168.829 34.1229 168.802 34.0984C168.775 34.0739 168.759 34.0407 168.759 34.0061C168.759 33.9714 168.775 33.9382 168.802 33.9137C168.829 33.8892 168.866 33.8755 168.905 33.8755H187.276C187.315 33.8755 187.352 33.8892 187.379 33.9137C187.406 33.9382 187.421 33.9714 187.421 34.0061C187.421 34.0407 187.406 34.0739 187.379 34.0984C187.352 34.1229 187.315 34.1366 187.276 34.1366Z" fill="#367CFF"/>
<path d="M202.756 34.1366H190.773C190.734 34.1366 190.697 34.1229 190.67 34.0984C190.643 34.0739 190.628 34.0407 190.628 34.0061C190.628 33.9714 190.643 33.9382 190.67 33.9137C190.697 33.8892 190.734 33.8755 190.773 33.8755H202.756C202.794 33.8755 202.831 33.8892 202.858 33.9137C202.886 33.9382 202.901 33.9714 202.901 34.0061C202.901 34.0407 202.886 34.0739 202.858 34.0984C202.831 34.1229 202.794 34.1366 202.756 34.1366H202.756Z" fill="#292A2E"/>
<path d="M180.281 38.8474H162.49C162.452 38.8474 162.415 38.8337 162.387 38.8092C162.36 38.7847 162.345 38.7515 162.345 38.7169C162.345 38.6822 162.36 38.649 162.387 38.6245C162.415 38.6001 162.452 38.5863 162.49 38.5863H180.281C180.32 38.5863 180.357 38.6001 180.384 38.6245C180.411 38.649 180.426 38.6822 180.426 38.7169C180.426 38.7515 180.411 38.7847 180.384 38.8092C180.357 38.8337 180.32 38.8474 180.281 38.8474Z" fill="#292A2E"/>
<path d="M190.18 38.8474H183.425C183.387 38.8474 183.35 38.8337 183.323 38.8092C183.295 38.7847 183.28 38.7515 183.28 38.7169C183.28 38.6822 183.295 38.649 183.323 38.6245C183.35 38.6001 183.387 38.5863 183.425 38.5863H190.18C190.219 38.5863 190.256 38.6001 190.283 38.6245C190.31 38.649 190.326 38.6822 190.326 38.7169C190.326 38.7515 190.31 38.7847 190.283 38.8092C190.256 38.8337 190.219 38.8474 190.18 38.8474Z" fill="#0CBC8B"/>
<path d="M202.731 38.8474H193.072C193.033 38.8474 192.996 38.8337 192.969 38.8092C192.942 38.7847 192.927 38.7515 192.927 38.7169C192.927 38.6822 192.942 38.649 192.969 38.6245C192.996 38.6001 193.033 38.5863 193.072 38.5863H202.731C202.769 38.5863 202.806 38.6001 202.834 38.6245C202.861 38.649 202.876 38.6822 202.876 38.7169C202.876 38.7515 202.861 38.7847 202.834 38.8092C202.806 38.8337 202.769 38.8474 202.731 38.8474Z" fill="#292A2E"/>
<path d="M165.76 41.2028H162.49C162.452 41.2028 162.415 41.1891 162.387 41.1646C162.36 41.1401 162.345 41.1069 162.345 41.0723C162.345 41.0376 162.36 41.0044 162.387 40.9799C162.415 40.9554 162.452 40.9417 162.49 40.9417H165.76C165.799 40.9417 165.836 40.9554 165.863 40.9799C165.89 41.0044 165.906 41.0376 165.906 41.0723C165.906 41.1069 165.89 41.1401 165.863 41.1646C165.836 41.1891 165.799 41.2028 165.76 41.2028Z" fill="#367CFF"/>
<path d="M187.276 41.2028H168.905C168.866 41.2028 168.829 41.1891 168.802 41.1646C168.775 41.1401 168.759 41.1069 168.759 41.0723C168.759 41.0376 168.775 41.0044 168.802 40.9799C168.829 40.9554 168.866 40.9417 168.905 40.9417H187.276C187.315 40.9417 187.352 40.9554 187.379 40.9799C187.406 41.0044 187.421 41.0376 187.421 41.0723C187.421 41.1069 187.406 41.1401 187.379 41.1646C187.352 41.1891 187.315 41.2028 187.276 41.2028Z" fill="#0CBC8B"/>
<path d="M179.7 50.6244H161.909C161.871 50.6244 161.834 50.6107 161.807 50.5862C161.779 50.5617 161.764 50.5285 161.764 50.4939C161.764 50.4592 161.779 50.426 161.807 50.4015C161.834 50.3771 161.871 50.3633 161.909 50.3633H179.7C179.739 50.3633 179.776 50.3771 179.803 50.4015C179.83 50.426 179.845 50.4592 179.845 50.4939C179.845 50.5285 179.83 50.5617 179.803 50.5862C179.776 50.6107 179.739 50.6244 179.7 50.6244Z" fill="#292A2E"/>
<path d="M195.408 50.6244H182.845C182.806 50.6244 182.769 50.6107 182.742 50.5862C182.715 50.5617 182.699 50.5285 182.699 50.4939C182.699 50.4592 182.715 50.426 182.742 50.4015C182.769 50.3771 182.806 50.3633 182.845 50.3633H195.408C195.446 50.3633 195.483 50.3771 195.511 50.4015C195.538 50.426 195.553 50.4592 195.553 50.4939C195.553 50.5285 195.538 50.5617 195.511 50.5862C195.483 50.6107 195.446 50.6244 195.408 50.6244Z" fill="#367CFF"/>
<path d="M170.988 48.269H161.909C161.871 48.269 161.834 48.2553 161.807 48.2308C161.779 48.2063 161.764 48.1731 161.764 48.1385C161.764 48.1038 161.779 48.0706 161.807 48.0461C161.834 48.0217 161.871 48.0079 161.909 48.0079H170.988C171.026 48.0079 171.063 48.0217 171.091 48.0461C171.118 48.0706 171.133 48.1038 171.133 48.1385C171.133 48.1731 171.118 48.2063 171.091 48.2308C171.063 48.2553 171.026 48.269 170.988 48.269Z" fill="#0CBC8B"/>
<path d="M186.695 48.269H174.132C174.094 48.269 174.057 48.2553 174.029 48.2308C174.002 48.2063 173.987 48.1731 173.987 48.1385C173.987 48.1038 174.002 48.0706 174.029 48.0461C174.057 48.0217 174.094 48.0079 174.132 48.0079H186.695C186.734 48.0079 186.771 48.0217 186.798 48.0461C186.825 48.0706 186.841 48.1038 186.841 48.1385C186.841 48.1731 186.825 48.2063 186.798 48.2308C186.771 48.2553 186.734 48.269 186.695 48.269Z" fill="#367CFF"/>
<path d="M202.175 48.269H190.192C190.154 48.269 190.117 48.2553 190.089 48.2308C190.062 48.2063 190.047 48.1731 190.047 48.1385C190.047 48.1038 190.062 48.0706 190.089 48.0461C190.117 48.0217 190.154 48.0079 190.192 48.0079H202.175C202.213 48.0079 202.25 48.0217 202.277 48.0461C202.305 48.0706 202.32 48.1038 202.32 48.1385C202.32 48.1731 202.305 48.2063 202.277 48.2308C202.25 48.2553 202.213 48.269 202.175 48.269H202.175Z" fill="#292A2E"/>
<path d="M188.413 55.3355H161.909C161.871 55.3355 161.834 55.3218 161.807 55.2973C161.779 55.2728 161.764 55.2396 161.764 55.2049C161.764 55.1703 161.779 55.1371 161.807 55.1126C161.834 55.0881 161.871 55.0744 161.909 55.0744H188.413C188.451 55.0744 188.488 55.0881 188.515 55.1126C188.543 55.1371 188.558 55.1703 188.558 55.2049C188.558 55.2396 188.543 55.2728 188.515 55.2973C188.488 55.3218 188.451 55.3355 188.413 55.3355Z" fill="#367CFF"/>
<path d="M195.408 55.3355H191.557C191.518 55.3355 191.482 55.3218 191.454 55.2973C191.427 55.2728 191.412 55.2396 191.412 55.2049C191.412 55.1703 191.427 55.1371 191.454 55.1126C191.482 55.0881 191.518 55.0744 191.557 55.0744H195.408C195.446 55.0744 195.483 55.0881 195.511 55.1126C195.538 55.1371 195.553 55.1703 195.553 55.2049C195.553 55.2396 195.538 55.2728 195.511 55.2973C195.483 55.3218 195.446 55.3355 195.408 55.3355Z" fill="#292A2E"/>
<path d="M165.18 52.9801H161.909C161.871 52.9801 161.834 52.9663 161.807 52.9418C161.779 52.9174 161.764 52.8841 161.764 52.8495C161.764 52.8149 161.779 52.7817 161.807 52.7572C161.834 52.7327 161.871 52.719 161.909 52.719H165.18C165.218 52.719 165.255 52.7327 165.282 52.7572C165.309 52.7817 165.325 52.8149 165.325 52.8495C165.325 52.8841 165.309 52.9174 165.282 52.9418C165.255 52.9663 165.218 52.9801 165.18 52.9801Z" fill="#367CFF"/>
<path d="M186.695 52.9801H168.324C168.285 52.9801 168.248 52.9663 168.221 52.9418C168.194 52.9173 168.179 52.8841 168.179 52.8495C168.179 52.8149 168.194 52.7817 168.221 52.7572C168.248 52.7327 168.285 52.7189 168.324 52.7189H186.695C186.734 52.7189 186.771 52.7327 186.798 52.7572C186.825 52.7817 186.841 52.8149 186.841 52.8495C186.841 52.8841 186.825 52.9173 186.798 52.9418C186.771 52.9663 186.734 52.9801 186.695 52.9801Z" fill="#292A2E"/>
<path d="M202.175 52.9801H190.192C190.154 52.9801 190.117 52.9663 190.089 52.9418C190.062 52.9173 190.047 52.8841 190.047 52.8495C190.047 52.8149 190.062 52.7817 190.089 52.7572C190.117 52.7327 190.154 52.7189 190.192 52.7189H202.175C202.213 52.7189 202.25 52.7327 202.277 52.7572C202.305 52.7817 202.32 52.8149 202.32 52.8495C202.32 52.8841 202.305 52.9173 202.277 52.9418C202.25 52.9663 202.213 52.9801 202.175 52.9801H202.175Z" fill="#0CBC8B"/>
<path d="M179.7 57.6909H161.909C161.871 57.6909 161.834 57.6771 161.807 57.6526C161.779 57.6282 161.764 57.595 161.764 57.5603C161.764 57.5257 161.779 57.4925 161.807 57.468C161.834 57.4435 161.871 57.4297 161.909 57.4297H179.7C179.739 57.4297 179.776 57.4435 179.803 57.468C179.83 57.4925 179.845 57.5257 179.845 57.5603C179.845 57.595 179.83 57.6282 179.803 57.6526C179.776 57.6771 179.739 57.6909 179.7 57.6909Z" fill="#0CBC8B"/>
<path d="M189.6 57.6909H182.845C182.806 57.6909 182.769 57.6771 182.742 57.6526C182.715 57.6282 182.699 57.5949 182.699 57.5603C182.699 57.5257 182.715 57.4925 182.742 57.468C182.769 57.4435 182.806 57.4297 182.845 57.4297H189.6C189.638 57.4297 189.675 57.4435 189.702 57.468C189.729 57.4925 189.745 57.5257 189.745 57.5603C189.745 57.5949 189.729 57.6282 189.702 57.6526C189.675 57.6771 189.638 57.6909 189.6 57.6909Z" fill="#292A2E"/>
<path d="M202.15 57.6909H192.491C192.452 57.6909 192.416 57.6771 192.388 57.6526C192.361 57.6282 192.346 57.5949 192.346 57.5603C192.346 57.5257 192.361 57.4925 192.388 57.468C192.416 57.4435 192.452 57.4297 192.491 57.4297H202.15C202.189 57.4297 202.226 57.4435 202.253 57.468C202.28 57.4925 202.295 57.5257 202.295 57.5603C202.295 57.5949 202.28 57.6282 202.253 57.6526C202.226 57.6771 202.189 57.6909 202.15 57.6909Z" fill="#367CFF"/>
<path d="M152.578 60.2113C152.539 60.2113 152.502 60.1976 152.475 60.1731C152.448 60.1486 152.433 60.1154 152.433 60.0808V22.9586C152.433 22.924 152.448 22.8908 152.475 22.8663C152.502 22.8418 152.539 22.8281 152.578 22.8281C152.616 22.8281 152.653 22.8418 152.681 22.8663C152.708 22.8908 152.723 22.924 152.723 22.9586V60.0808C152.723 60.1154 152.708 60.1486 152.681 60.1731C152.653 60.1976 152.616 60.2113 152.578 60.2113Z" fill="#292A2E"/>
<path d="M201.21 20.4771C202.496 20.4771 203.539 19.5393 203.539 18.3823C203.539 17.2254 202.496 16.2875 201.21 16.2875C199.923 16.2875 198.88 17.2254 198.88 18.3823C198.88 19.5393 199.923 20.4771 201.21 20.4771Z" fill="white"/>
<path d="M145.936 24.5897H139.648C139.61 24.5897 139.573 24.5759 139.546 24.5514C139.518 24.5269 139.503 24.4937 139.503 24.4591C139.503 24.4245 139.518 24.3913 139.546 24.3668C139.573 24.3423 139.61 24.3285 139.648 24.3285H145.936C145.975 24.3285 146.012 24.3423 146.039 24.3668C146.066 24.3913 146.082 24.4245 146.082 24.4591C146.082 24.4937 146.066 24.5269 146.039 24.5514C146.012 24.5759 145.975 24.5897 145.936 24.5897Z" fill="#292A2E"/>
<path d="M144.042 27.1649H139.648C139.61 27.1649 139.573 27.1512 139.546 27.1267C139.518 27.1022 139.503 27.069 139.503 27.0344C139.503 26.9997 139.518 26.9665 139.546 26.9421C139.573 26.9176 139.61 26.9038 139.648 26.9038H144.042C144.081 26.9038 144.118 26.9176 144.145 26.9421C144.172 26.9665 144.187 26.9997 144.187 27.0344C144.187 27.069 144.172 27.1022 144.145 27.1267C144.118 27.1512 144.081 27.1649 144.042 27.1649Z" fill="#292A2E"/>
<path d="M147.906 29.7402H139.648C139.61 29.7402 139.573 29.7265 139.546 29.702C139.518 29.6775 139.503 29.6443 139.503 29.6096C139.503 29.575 139.518 29.5418 139.546 29.5173C139.573 29.4928 139.61 29.4791 139.648 29.4791H147.906C147.945 29.4791 147.981 29.4928 148.009 29.5173C148.036 29.5418 148.051 29.575 148.051 29.6096C148.051 29.6443 148.036 29.6775 148.009 29.702C147.981 29.7265 147.945 29.7402 147.906 29.7402Z" fill="#292A2E"/>
<path d="M149.447 32.3155H142.553C142.514 32.3155 142.477 32.3017 142.45 32.2772C142.423 32.2528 142.407 32.2195 142.407 32.1849C142.407 32.1503 142.423 32.1171 142.45 32.0926C142.477 32.0681 142.514 32.0544 142.553 32.0544H149.447C149.485 32.0544 149.522 32.0681 149.55 32.0926C149.577 32.1171 149.592 32.1503 149.592 32.1849C149.592 32.2195 149.577 32.2528 149.55 32.2772C149.522 32.3017 149.485 32.3155 149.447 32.3155Z" fill="#292A2E"/>
<path d="M146.113 34.891H142.553C142.514 34.891 142.477 34.8773 142.45 34.8528C142.423 34.8283 142.407 34.7951 142.407 34.7605C142.407 34.7258 142.423 34.6926 142.45 34.6681C142.477 34.6437 142.514 34.6299 142.553 34.6299H146.113C146.152 34.6299 146.188 34.6437 146.216 34.6681C146.243 34.6926 146.258 34.7258 146.258 34.7605C146.258 34.7951 146.243 34.8283 146.216 34.8528C146.188 34.8773 146.152 34.891 146.113 34.891Z" fill="#292A2E"/>
<path d="M148.841 37.4663H142.553C142.514 37.4663 142.477 37.4525 142.45 37.4281C142.423 37.4036 142.407 37.3704 142.407 37.3357C142.407 37.3011 142.423 37.2679 142.45 37.2434C142.477 37.2189 142.514 37.2052 142.553 37.2052H148.841C148.879 37.2052 148.916 37.2189 148.943 37.2434C148.97 37.2679 148.986 37.3011 148.986 37.3357C148.986 37.3704 148.97 37.4036 148.943 37.4281C148.916 37.4525 148.879 37.4663 148.841 37.4663Z" fill="#292A2E"/>
<path d="M144.497 40.0416H139.648C139.61 40.0416 139.573 40.0278 139.546 40.0033C139.518 39.9788 139.503 39.9456 139.503 39.911C139.503 39.8764 139.518 39.8432 139.546 39.8187C139.573 39.7942 139.61 39.7804 139.648 39.7804H144.497C144.535 39.7804 144.572 39.7942 144.6 39.8187C144.627 39.8432 144.642 39.8764 144.642 39.911C144.642 39.9456 144.627 39.9788 144.6 40.0033C144.572 40.0278 144.535 40.0416 144.497 40.0416Z" fill="#292A2E"/>
<path d="M142.83 42.6166H139.648C139.61 42.6166 139.573 42.6028 139.546 42.5783C139.518 42.5539 139.503 42.5206 139.503 42.486C139.503 42.4514 139.518 42.4182 139.546 42.3937C139.573 42.3692 139.61 42.3555 139.648 42.3555H142.83C142.869 42.3555 142.906 42.3692 142.933 42.3937C142.96 42.4182 142.975 42.4514 142.975 42.486C142.975 42.5206 142.96 42.5539 142.933 42.5783C142.906 42.6028 142.869 42.6166 142.83 42.6166Z" fill="#292A2E"/>
<path d="M154.997 24.0371V24.0841L156.812 24.6899C156.838 24.6994 156.86 24.7157 156.876 24.7367C156.891 24.7576 156.899 24.7823 156.899 24.8074V24.8518C156.9 24.8714 156.895 24.8908 156.884 24.9082C156.874 24.9256 156.859 24.9403 156.841 24.9511C156.823 24.9627 156.801 24.97 156.779 24.9723C156.757 24.9746 156.734 24.9718 156.713 24.9641L154.663 24.2434C154.637 24.2342 154.616 24.2184 154.6 24.1979C154.584 24.1774 154.576 24.1533 154.576 24.1285V23.9953C154.576 23.9705 154.584 23.9461 154.6 23.9256C154.615 23.9051 154.637 23.8893 154.663 23.8804L156.713 23.1571C156.73 23.152 156.748 23.1493 156.765 23.1493C156.792 23.1498 156.819 23.157 156.841 23.1702C156.859 23.1815 156.874 23.1967 156.885 23.2145C156.895 23.2322 156.9 23.252 156.899 23.272V23.3164C156.9 23.3413 156.892 23.3658 156.876 23.3864C156.861 23.407 156.838 23.4227 156.812 23.4313L154.997 24.0371Z" fill="#367CFF"/>
<path d="M158.595 22.6244L157.509 25.6143C157.5 25.6393 157.483 25.6611 157.459 25.6766C157.436 25.692 157.407 25.7004 157.378 25.7005C157.357 25.7008 157.336 25.6964 157.317 25.6878C157.299 25.6791 157.283 25.6665 157.271 25.6509C157.258 25.6355 157.249 25.6175 157.245 25.5985C157.241 25.5795 157.242 25.5599 157.248 25.5412L158.334 22.5539C158.343 22.5285 158.361 22.5062 158.385 22.4903C158.409 22.4744 158.437 22.4656 158.467 22.4651C158.488 22.465 158.509 22.4695 158.528 22.4781C158.546 22.4868 158.562 22.4993 158.575 22.5147C158.588 22.5302 158.596 22.5482 158.6 22.5673C158.603 22.5864 158.602 22.606 158.595 22.6244Z" fill="#367CFF"/>
<path d="M161.262 23.9953V24.1285C161.263 24.1531 161.255 24.1771 161.24 24.1976C161.225 24.2181 161.203 24.2341 161.178 24.2434L159.125 24.9641C159.104 24.9717 159.082 24.9745 159.06 24.9722C159.038 24.9699 159.018 24.9627 159 24.9511C158.981 24.9404 158.966 24.9258 158.955 24.9085C158.945 24.8911 158.939 24.8717 158.939 24.8518V24.8075C158.939 24.7819 158.947 24.7569 158.963 24.7359C158.979 24.7149 159.002 24.6988 159.029 24.6899L160.844 24.0841V24.0371L159.029 23.4313C159.002 23.4233 158.979 23.4078 158.963 23.3872C158.947 23.3665 158.938 23.3417 158.939 23.3164V23.272C158.939 23.2518 158.945 23.232 158.955 23.2142C158.966 23.1965 158.981 23.1813 159 23.1702C159.022 23.1571 159.048 23.1498 159.075 23.1493C159.092 23.1491 159.109 23.1518 159.125 23.1571L161.178 23.8804C161.203 23.8895 161.225 23.9054 161.24 23.9259C161.255 23.9465 161.263 23.9707 161.262 23.9953Z" fill="#367CFF"/>
<path d="M120.202 0H17.9113V91.9769H120.202V0Z" fill="#F4F4F4"/>
<path d="M17.9113 0H16.7389V91.9769H17.9113V0Z" fill="#F4F4F4"/>
<path opacity="0.05" d="M17.9113 0H16.7389V91.9769H17.9113V0Z" fill="#292A2E"/>
<path opacity="0.05" d="M42.6917 63.3796V39.3154H64.6144V53.2963H98.5725V78.0508H113.005V91.9769H98.5725H95.7921H22.832V63.3796H42.6917Z" fill="#292A2E"/>
<path opacity="0.34" d="M61.8003 41.9282H45.836V44.5411H61.8003V41.9282Z" fill="#FFFFFA"/>
<path opacity="0.34" d="M61.8003 47.3425H45.836V49.9554H61.8003V47.3425Z" fill="#FFFFFA"/>
<path opacity="0.34" d="M61.8003 52.7568H45.836V55.3697H61.8003V52.7568Z" fill="#FFFFFA"/>
<path opacity="0.34" d="M28.6052 65.9157H25.6627V68.5286H28.6052V65.9157Z" fill="#FFFFFA"/>
<path opacity="0.34" d="M28.6052 71.33H25.6627V73.9429H28.6052V71.33Z" fill="#FFFFFA"/>
<path opacity="0.34" d="M28.6052 76.7446H25.6627V79.3575H28.6052V76.7446Z" fill="#FFFFFA"/>
<path opacity="0.34" d="M34.0487 65.9157H31.1062V68.5286H34.0487V65.9157Z" fill="#FFFFFA"/>
<path opacity="0.34" d="M34.0487 71.33H31.1062V73.9429H34.0487V71.33Z" fill="#FFFFFA"/>
<path opacity="0.34" d="M34.0487 76.7446H31.1062V79.3575H34.0487V76.7446Z" fill="#FFFFFA"/>
<path opacity="0.34" d="M39.3453 65.9157H36.4028V68.5286H39.3453V65.9157Z" fill="#FFFFFA"/>
<path opacity="0.34" d="M39.3453 71.33H36.4028V73.9429H39.3453V71.33Z" fill="#FFFFFA"/>
<path opacity="0.34" d="M39.3453 76.7446H36.4028V79.3575H39.3453V76.7446Z" fill="#FFFFFA"/>
<path d="M17.9113 45.4726H38.494V0H40.1962V45.4726H95.7921V0H97.4942V45.4726H120.202V47.0031H97.4942V91.9769H95.7921V47.0031H40.1962V91.9769H38.494V47.0031H17.9113V45.4726Z" fill="white"/>
<path d="M124.277 91.8659H13.8364V94.9248H124.277V91.8659Z" fill="#F4F4F4"/>
<path opacity="0.1" d="M124.277 91.8659H13.8364V94.9248H124.277V91.8659Z" fill="#292A2E"/>
<path opacity="0.1" d="M13.8365 91.8659H12.2418V94.9248H13.8365V91.8659Z" fill="#292A2E"/>
<path opacity="0.1" d="M13.8365 91.8659H12.2418V94.9248H13.8365V91.8659Z" fill="#292A2E"/>
<path d="M16.7389 3.91591L120.202 3.91591V1.64172L16.7389 1.64172V3.91591Z" fill="white"/>
<path d="M16.7389 8.16399L120.202 8.16399V5.8898L16.7389 5.8898V8.16399Z" fill="white"/>
<path d="M16.7389 12.4118L120.202 12.4118V10.1376L16.7389 10.1376V12.4118Z" fill="white"/>
<path d="M16.7389 16.6596L120.202 16.6596V14.3854L16.7389 14.3854V16.6596Z" fill="white"/>
<path d="M16.7389 20.9072L120.202 20.9072V18.633L16.7389 18.633V20.9072Z" fill="white"/>
<path d="M27.7278 23.4723H29.2783L29.2783 9.53674e-06H27.7278L27.7278 23.4723Z" fill="white"/>
<path d="M28.3716 26.8432C29.5481 26.8432 30.5018 25.9857 30.5018 24.9278C30.5018 23.87 29.5481 23.0124 28.3716 23.0124C27.1952 23.0124 26.2415 23.87 26.2415 24.9278C26.2415 25.9857 27.1952 26.8432 28.3716 26.8432Z" fill="white"/>
<path d="M17.642 219.824L17.0717 219.726L25.9862 140.072L26.5566 140.171L17.642 219.824Z" fill="#494949"/>
<path d="M50.8357 219.824L50.2653 219.726L59.1796 140.072L59.7499 140.171L50.8357 219.824Z" fill="#494949"/>
<path d="M124.208 219.824L124.779 219.726L115.864 140.073L115.294 140.171L124.208 219.824Z" fill="#494949"/>
<path d="M91.0145 219.824L91.5848 219.726L82.6706 140.072L82.1002 140.171L91.0145 219.824Z" fill="#494949"/>
<path d="M79.1926 105.017L78.6169 105.086L83.8246 140.157L84.4003 140.088L79.1926 105.017Z" fill="#494949"/>
<path d="M19.4184 105.017L18.8427 105.086L24.0503 140.157L24.6261 140.088L19.4184 105.017Z" fill="#494949"/>
<path d="M84.35 137.554H25.8839C24.3065 137.554 23.0277 138.703 23.0277 140.122V140.122C23.0277 141.54 24.3065 142.69 25.8839 142.69H84.35C85.9275 142.69 87.2062 141.54 87.2062 140.122V140.122C87.2062 138.703 85.9275 137.554 84.35 137.554Z" fill="#292A2E"/>
<path opacity="0.8" d="M84.35 137.554H25.8839C24.3065 137.554 23.0277 138.703 23.0277 140.122V140.122C23.0277 141.54 24.3065 142.69 25.8839 142.69H84.35C85.9275 142.69 87.2062 141.54 87.2062 140.122V140.122C87.2062 138.703 85.9275 137.554 84.35 137.554Z" fill="white"/>
<path d="M84.35 142.951H25.8842C25.471 142.951 25.0618 142.878 24.68 142.736C24.2983 142.594 23.9514 142.385 23.6592 142.123C23.367 141.86 23.1352 141.548 22.9771 141.205C22.8189 140.861 22.7375 140.493 22.7375 140.122C22.7375 139.75 22.8189 139.382 22.9771 139.039C23.1352 138.696 23.367 138.384 23.6592 138.121C23.9514 137.858 24.2983 137.65 24.68 137.508C25.0618 137.366 25.471 137.293 25.8842 137.293H84.35C84.7632 137.293 85.1724 137.366 85.5541 137.508C85.9359 137.65 86.2828 137.858 86.575 138.121C86.8672 138.384 87.099 138.696 87.2571 139.039C87.4152 139.382 87.4966 139.75 87.4966 140.122C87.4966 140.493 87.4152 140.861 87.2571 141.205C87.099 141.548 86.8672 141.86 86.575 142.123C86.2828 142.385 85.9359 142.594 85.5541 142.736C85.1724 142.878 84.7632 142.951 84.35 142.951ZM25.8842 137.815C25.5472 137.815 25.2136 137.874 24.9023 137.99C24.591 138.106 24.3081 138.276 24.0699 138.49C23.8316 138.705 23.6426 138.959 23.5137 139.239C23.3847 139.519 23.3184 139.819 23.3184 140.122C23.3184 140.425 23.3847 140.725 23.5137 141.005C23.6426 141.285 23.8316 141.539 24.0699 141.753C24.3081 141.967 24.591 142.137 24.9023 142.253C25.2136 142.369 25.5472 142.429 25.8842 142.429H84.35C84.6869 142.429 85.0206 142.369 85.3319 142.253C85.6432 142.137 85.926 141.967 86.1643 141.753C86.4025 141.539 86.5915 141.285 86.7205 141.005C86.8494 140.725 86.9158 140.425 86.9158 140.122C86.9158 139.819 86.8494 139.519 86.7205 139.239C86.5915 138.959 86.4025 138.705 86.1643 138.49C85.926 138.276 85.6432 138.106 85.3319 137.99C85.0206 137.874 84.6869 137.815 84.35 137.815H25.8842Z" fill="#292A2E"/>
<path d="M116.44 137.554H57.9735C56.3961 137.554 55.1173 138.703 55.1173 140.122V140.122C55.1173 141.54 56.3961 142.69 57.9735 142.69H116.44C118.017 142.69 119.296 141.54 119.296 140.122V140.122C119.296 138.703 118.017 137.554 116.44 137.554Z" fill="white"/>
<path d="M116.44 142.951H57.9735C57.5603 142.951 57.1511 142.878 56.7694 142.736C56.3876 142.594 56.0407 142.385 55.7485 142.123C55.4563 141.86 55.2246 141.548 55.0664 141.205C54.9083 140.861 54.8269 140.493 54.8269 140.122C54.8269 139.75 54.9083 139.382 55.0664 139.039C55.2246 138.696 55.4563 138.384 55.7485 138.121C56.0407 137.858 56.3876 137.65 56.7694 137.508C57.1511 137.366 57.5603 137.293 57.9735 137.293H116.44C116.853 137.293 117.262 137.366 117.644 137.508C118.026 137.65 118.372 137.858 118.665 138.121C118.957 138.384 119.189 138.696 119.347 139.039C119.505 139.382 119.586 139.75 119.586 140.122C119.586 140.493 119.505 140.861 119.347 141.205C119.189 141.548 118.957 141.86 118.665 142.123C118.372 142.385 118.026 142.594 117.644 142.736C117.262 142.878 116.853 142.951 116.44 142.951ZM57.9735 137.815C57.6366 137.815 57.3029 137.874 56.9916 137.99C56.6803 138.106 56.3975 138.276 56.1592 138.49C55.921 138.705 55.732 138.959 55.603 139.239C55.4741 139.519 55.4077 139.819 55.4077 140.122C55.4077 140.425 55.4741 140.725 55.603 141.005C55.732 141.285 55.921 141.539 56.1592 141.753C56.3975 141.967 56.6803 142.137 56.9916 142.253C57.3029 142.369 57.6366 142.429 57.9735 142.429H116.44C116.777 142.429 117.11 142.369 117.422 142.253C117.733 142.137 118.016 141.967 118.254 141.753C118.492 141.539 118.681 141.285 118.81 141.005C118.939 140.725 119.005 140.425 119.005 140.122C119.005 139.819 118.939 139.519 118.81 139.239C118.681 138.959 118.492 138.705 118.254 138.49C118.016 138.276 117.733 138.106 117.422 137.99C117.11 137.874 116.777 137.815 116.44 137.815H57.9735Z" fill="#292A2E"/>
<path d="M75.9896 105.051H19.2872C18.3601 105.051 17.4647 104.747 16.7681 104.197C16.0716 103.647 15.6214 102.888 15.5016 102.061L11.7509 76.1628C11.6808 75.6786 11.7264 75.1866 11.8846 74.7195C12.0428 74.2525 12.31 73.8211 12.6683 73.4543C13.0267 73.0875 13.4679 72.7936 13.9626 72.5924C14.4573 72.3911 14.9941 72.287 15.5371 72.2871H72.2389C73.166 72.2871 74.0613 72.5904 74.7579 73.1404C75.4545 73.6905 75.9047 74.4496 76.0245 75.2762L79.7749 101.175C79.845 101.659 79.7995 102.151 79.6413 102.618C79.4832 103.085 79.2161 103.517 78.8578 103.883C78.4996 104.25 78.0584 104.544 77.5638 104.745C77.0692 104.947 76.5325 105.051 75.9896 105.051Z" fill="#292A2E"/>
<path opacity="0.8" d="M75.9896 105.051H19.2872C18.3601 105.051 17.4647 104.747 16.7681 104.197C16.0716 103.647 15.6214 102.888 15.5016 102.061L11.7509 76.1628C11.6808 75.6786 11.7264 75.1866 11.8846 74.7195C12.0428 74.2525 12.31 73.8211 12.6683 73.4543C13.0267 73.0875 13.4679 72.7936 13.9626 72.5924C14.4573 72.3911 14.9941 72.287 15.5371 72.2871H72.2389C73.166 72.2871 74.0613 72.5904 74.7579 73.1404C75.4545 73.6905 75.9047 74.4496 76.0245 75.2762L79.7749 101.175C79.845 101.659 79.7995 102.151 79.6413 102.618C79.4832 103.085 79.2161 103.517 78.8578 103.883C78.4996 104.25 78.0584 104.544 77.5638 104.745C77.0692 104.947 76.5325 105.051 75.9896 105.051Z" fill="white"/>
<path d="M75.9896 105.312H19.2872C18.2902 105.31 17.3278 104.983 16.5787 104.391C15.8296 103.8 15.3445 102.984 15.2136 102.095L11.4632 76.1965C11.3876 75.6755 11.4366 75.146 11.6068 74.6434C11.777 74.1407 12.0645 73.6766 12.4501 73.2818C12.8357 72.887 13.3105 72.5708 13.8428 72.3542C14.3752 72.1376 14.9528 72.0256 15.5371 72.0257H72.2389C73.2359 72.0276 74.1983 72.3548 74.9474 72.9464C75.6964 73.538 76.1814 74.3538 76.3123 75.2425L80.063 101.142C80.1384 101.662 80.0894 102.192 79.9193 102.694C79.7491 103.197 79.4617 103.661 79.0761 104.056C78.6906 104.451 78.2159 104.767 77.6836 104.983C77.1514 105.2 76.5739 105.312 75.9896 105.312ZM15.5371 72.5479C15.0355 72.5479 14.5396 72.6442 14.0826 72.8302C13.6256 73.0162 13.218 73.2877 12.887 73.6266C12.556 73.9655 12.3092 74.364 12.1631 74.7955C12.017 75.227 11.9749 75.6815 12.0396 76.1288L15.7903 102.028C15.9027 102.791 16.3191 103.491 16.9623 103.999C17.6055 104.507 18.4317 104.788 19.2878 104.79H75.9896C76.4912 104.79 76.9869 104.693 77.4438 104.507C77.9007 104.321 78.3082 104.05 78.6391 103.711C78.97 103.372 79.2167 102.973 79.3628 102.542C79.5089 102.111 79.551 101.656 79.4862 101.209L75.7364 75.3102C75.624 74.5471 75.2075 73.8467 74.5644 73.3387C73.9212 72.8308 73.0949 72.5499 72.2389 72.5482L15.5371 72.5479Z" fill="#292A2E"/>
<path d="M79.1958 105.051H22.4934C21.5663 105.051 20.671 104.747 19.9744 104.197C19.2779 103.647 18.8278 102.888 18.7081 102.061L14.9563 76.1628C14.8862 75.6787 14.9317 75.1867 15.0899 74.7197C15.2481 74.2527 15.5152 73.8214 15.8735 73.4545C16.2318 73.0877 16.6729 72.7939 17.1676 72.5925C17.6622 72.3912 18.1989 72.2871 18.7418 72.2871H75.4454C76.3724 72.2871 77.2677 72.5904 77.9643 73.1405C78.6608 73.6905 79.1109 74.4497 79.2306 75.2762L82.9813 101.175C83.0514 101.659 83.0059 102.151 82.8477 102.618C82.6895 103.085 82.4224 103.517 82.0641 103.883C81.7058 104.25 81.2647 104.544 80.77 104.745C80.2754 104.947 79.7387 105.051 79.1958 105.051Z" fill="white"/>
<path d="M79.1958 105.312H22.4934C21.4964 105.31 20.5341 104.983 19.785 104.391C19.036 103.8 18.551 102.984 18.4201 102.095L14.6694 76.1965C14.594 75.6755 14.643 75.1461 14.8132 74.6435C14.9834 74.141 15.2709 73.6768 15.6564 73.2821C16.042 72.8874 16.5167 72.5711 17.049 72.3544C17.5812 72.1378 18.1588 72.0257 18.743 72.0257H75.4451C76.4422 72.0277 77.4045 72.3549 78.1536 72.9464C78.9028 73.538 79.3878 74.3538 79.5188 75.2426L83.2695 101.142C83.3448 101.662 83.2958 102.192 83.1256 102.694C82.9553 103.197 82.6679 103.661 82.2823 104.056C81.8968 104.45 81.4221 104.767 80.8898 104.983C80.3576 105.2 79.7801 105.312 79.1958 105.312ZM18.743 72.5479C18.2415 72.5481 17.7457 72.6445 17.2889 72.8306C16.8321 73.0167 16.4246 73.2883 16.0937 73.6272C15.7628 73.9661 15.5161 74.3646 15.3701 74.796C15.224 75.2274 15.182 75.6819 15.2467 76.1291L18.996 102.028C19.1084 102.791 19.5249 103.491 20.168 103.999C20.8112 104.507 21.6374 104.788 22.4934 104.79H79.1958C79.6975 104.79 80.1933 104.694 80.6503 104.508C81.1073 104.322 81.5149 104.05 81.8459 103.711C82.1769 103.372 82.4237 102.974 82.5698 102.542C82.716 102.111 82.7581 101.656 82.6933 101.209L78.9426 75.3102C78.8302 74.5471 78.4138 73.8466 77.7706 73.3387C77.1275 72.8308 76.3012 72.5499 75.4451 72.5482L18.743 72.5479Z" fill="#292A2E"/>
<path d="M123.272 110.964L122.694 111.017L134.937 220L135.515 219.947L123.272 110.964Z" fill="#494949"/>
<path d="M73.0852 32.5273C73.0852 32.5273 76.853 29.97 77.7867 24.0836C78.5096 19.5261 73.8339 22.4787 73.8339 22.4787C73.8339 22.4787 74.3189 19.1924 71.6558 19.5185C68.9927 19.8447 67.5029 23.2968 67.5029 23.2968" fill="#0C0C0C"/>
<path d="M57.8934 19.9032C57.8934 19.9032 44.681 21.1777 49.4575 37.2749L50.6267 37.3454L52.9999 37.4885" fill="#0C0C0C"/>
<path d="M70.8723 54.087C70.8142 54.0802 70.1695 63.6966 57.7438 62.8592C49.1417 62.2797 46.0747 54.0734 45.8775 54.0734C46.8051 53.8964 47.9511 53.6272 48.4067 53.535C49.3994 53.3278 50.2984 52.8537 50.9841 52.1758C51.6699 51.498 52.1098 50.6484 52.2454 49.7402C52.4972 48.3771 52.0712 41.4028 52.2016 40.0235L65.4058 42.6735C65.2214 45.5867 63.9299 52.3398 68.4551 53.535C69.2093 53.7327 70.0205 53.9144 70.8723 54.087Z" fill="#E98862"/>
<path opacity="0.52" d="M65.5914 50.7751C65.3846 50.1757 65.2513 49.5577 65.1941 48.9323C65.0492 47.5051 65.0784 46.0679 65.2812 44.6464C62.5974 44.3207 60.0691 43.3247 57.9834 41.7716C57.7383 42.5858 56.3899 46.1434 56.7636 46.9171C57.4679 48.38 60.7836 50.7751 65.5914 50.7751Z" fill="#0C0C0C"/>
<path d="M62.8662 48.8717C57.6567 48.4516 51.4218 45.4922 51.3321 39.1339L51.2508 33.3968C51.161 27.0388 54.8019 21.842 61.46 21.7658C68.1177 21.6898 73.1671 26.7871 73.2569 33.1454L73.2929 35.6851C73.2883 36.5574 73.2175 37.4284 73.0812 38.292C72.7396 40.5769 72.2099 44.0507 70.4857 46.4006C68.8571 48.6192 66.194 49.1399 62.8662 48.8717Z" fill="#E98862"/>
<path d="M65.283 43.0605C66.3579 43.1043 67.4293 42.9203 68.4107 42.5234C68.431 42.5156 68.4494 42.5043 68.4648 42.4901C68.4802 42.4759 68.4924 42.4592 68.5006 42.4408C68.5089 42.4223 68.513 42.4027 68.5128 42.3828C68.5125 42.363 68.5079 42.3434 68.4993 42.3252C68.4906 42.3069 68.4781 42.2904 68.4623 42.2765C68.4465 42.2626 68.4279 42.2517 68.4074 42.2443C68.3869 42.2369 68.3651 42.2332 68.343 42.2334C68.3209 42.2336 68.2991 42.2377 68.2789 42.2455C66.1647 43.0563 64.2447 42.9375 62.727 41.9021C62.6965 41.8803 62.6646 41.86 62.6315 41.8413C62.5933 41.8254 62.55 41.8229 62.5099 41.8344C62.4698 41.8458 62.436 41.8703 62.415 41.9031C62.3941 41.9359 62.3875 41.9745 62.3967 42.0114C62.4058 42.0483 62.43 42.0808 62.4645 42.1024C62.4767 42.1092 62.4961 42.123 62.5226 42.1421C63.3205 42.6884 64.2817 43.0082 65.283 43.0605Z" fill="#0C0C0C"/>
<path d="M65.2327 44.4923C65.427 44.503 65.6219 44.4989 65.8153 44.4797C65.8596 44.4755 65.9002 44.4557 65.9282 44.4245C65.9562 44.3934 65.9693 44.3535 65.9646 44.3137C65.9599 44.2738 65.9378 44.2373 65.9031 44.2122C65.8685 44.187 65.8242 44.1752 65.7799 44.1794C64.6162 44.2907 64.0609 43.8113 64.0374 43.7906C64.0059 43.7623 63.9632 43.7463 63.9187 43.7463C63.8741 43.7462 63.8314 43.7621 63.7998 43.7904C63.7683 43.8187 63.7505 43.8571 63.7505 43.8971C63.7504 43.9372 63.7681 43.9756 63.7995 44.004C64.2002 44.3107 64.7066 44.4833 65.2327 44.4923Z" fill="#0C0C0C"/>
<path d="M71.0581 36.9077C71.511 36.9077 71.8782 36.5776 71.8782 36.1703C71.8782 35.763 71.511 35.4329 71.0581 35.4329C70.6052 35.4329 70.238 35.763 70.238 36.1703C70.238 36.5776 70.6052 36.9077 71.0581 36.9077Z" fill="#0C0C0C"/>
<path d="M63.0462 36.4557C63.4991 36.4557 63.8663 36.1256 63.8663 35.7183C63.8663 35.311 63.4991 34.9809 63.0462 34.9809C62.5933 34.9809 62.2261 35.311 62.2261 35.7183C62.2261 36.1256 62.5933 36.4557 63.0462 36.4557Z" fill="#0C0C0C"/>
<path d="M51.7729 41.0662C49.7496 41.0895 48.082 39.1618 48.0556 37.3425C48.0292 35.5232 49.6558 34.5011 51.6791 34.4782L52.7388 35.6851L53.5119 41.0464L51.7729 41.0662Z" fill="#E98862"/>
<path d="M53.7846 38.1429C53.7846 38.1429 54.468 29.1461 57.5019 28.5904C59.5226 28.2204 64.4228 30.7978 68.9614 30.0194C70.9472 29.6799 72.8323 30.1207 73.024 30.9641C73.0998 31.2981 74.3369 26.4988 71.2275 22.8576C68.7517 19.9577 60.6497 19.1391 56.9638 20.0896C46.7578 22.7223 51.2615 34.874 51.2615 34.874L51.7166 37.9758L53.7846 38.1429Z" fill="#0C0C0C"/>
<path d="M66.5047 40.9367H66.5178C67.1698 40.9307 68.2626 40.8555 68.2583 40.4168C68.2539 40.0533 67.1039 36.1408 66.9723 35.6958C66.9597 35.6589 66.9317 35.6277 66.8942 35.609C66.8566 35.5902 66.8124 35.5852 66.7709 35.5951C66.7294 35.605 66.6937 35.629 66.6714 35.6621C66.6491 35.6951 66.642 35.7346 66.6514 35.7723C67.1622 37.5052 67.9231 40.1729 67.9263 40.4205C67.8633 40.5249 67.1898 40.6325 66.5146 40.6388C66.472 40.6396 66.4314 40.6551 66.4012 40.682C66.371 40.709 66.3534 40.7454 66.3521 40.7836C66.3509 40.8219 66.366 40.8592 66.3944 40.8877C66.4228 40.9162 66.4623 40.9339 66.5047 40.937V40.9367Z" fill="#0C0C0C"/>
<path d="M68.7305 32.1713C69.4157 32.0017 70.1391 32.0017 70.8243 32.1713C71.161 32.2527 71.4821 32.3791 71.7769 32.5463C72.0684 32.71 72.3356 32.9062 72.5723 33.1302C72.6177 33.1697 72.6441 33.2236 72.6458 33.2804C72.6475 33.3372 72.6244 33.3923 72.5814 33.434C72.5385 33.4756 72.4791 33.5005 72.416 33.5033C72.3529 33.506 72.2911 33.4865 72.2439 33.4488L72.2291 33.4373C72.0098 33.2549 71.7659 33.0979 71.503 32.9701C71.2451 32.8431 70.9674 32.7519 70.6791 32.6996C70.1117 32.5926 69.523 32.6223 68.9724 32.7855L68.9491 32.7928C68.8583 32.8217 68.7584 32.817 68.6715 32.7796C68.5845 32.7423 68.5176 32.6754 68.4855 32.5937C68.4534 32.512 68.4587 32.4222 68.5002 32.344C68.5417 32.2658 68.6161 32.2057 68.7069 32.1768L68.7305 32.1713Z" fill="#0C0C0C"/>
<path d="M63.8782 32.5419C63.3569 32.314 62.7778 32.2141 62.1996 32.2523C61.9062 32.2694 61.6174 32.3265 61.3429 32.4215C61.0639 32.5168 60.7994 32.6431 60.5553 32.7975L60.5396 32.8069C60.4873 32.8371 60.424 32.848 60.3629 32.8373C60.3018 32.8266 60.2477 32.7952 60.2117 32.7495C60.1757 32.7039 60.1607 32.6475 60.1697 32.5922C60.1788 32.5368 60.2112 32.4867 60.2603 32.4523C60.5281 32.2586 60.8221 32.0961 61.1353 31.9687C61.4523 31.8385 61.7893 31.7517 62.1349 31.7112C62.8392 31.6249 63.5563 31.7113 64.2105 31.9614C64.2991 31.996 64.3687 32.0609 64.4041 32.1417C64.4395 32.2225 64.4378 32.3126 64.3992 32.3923C64.3607 32.4719 64.2886 32.5345 64.1987 32.5664C64.1089 32.5982 64.0086 32.5966 63.9201 32.562L63.9 32.5534L63.8782 32.5419Z" fill="#0C0C0C"/>
<path d="M67.7552 25.9784C69.2528 25.697 70.0936 23.8622 69.633 21.8802C69.1725 19.8981 67.5851 18.5194 66.0874 18.8008C64.5898 19.0821 63.7491 20.917 64.2096 22.899C64.6702 24.881 66.2576 26.2597 67.7552 25.9784Z" fill="#0C0C0C"/>
<path d="M151.283 206.225C151.283 206.225 152.84 213.483 160.397 213.887C167.954 214.292 166.316 219.705 166.316 219.705H137.436V206.731L151.283 206.225Z" fill="#367CFF"/>
<path d="M96.3399 201.643C96.3399 201.643 94.1742 208.773 100.757 212.136C107.34 215.498 103.212 219.705 103.212 219.705L77.2974 208.242L83.6665 196.6L96.3399 201.643Z" fill="#367CFF"/>
<path d="M80.2896 199.629L102.143 137.639H62.5305C54.5732 137.639 51.256 131.572 51.256 124.417C51.256 117.263 59.0786 110.991 67.0354 110.991H120.498C125.351 110.991 130.793 113.66 133.456 117.308C136.12 120.956 135.4 126.608 133.47 130.613L98.475 207.037" fill="#262626"/>
<path opacity="0.8" d="M80.2896 199.629L102.143 137.639H62.5305C54.5732 137.639 51.256 131.572 51.256 124.417C51.256 117.263 59.0786 110.991 67.0354 110.991H120.498C125.351 110.991 130.793 113.66 133.456 117.308C136.12 120.956 135.4 126.608 133.47 130.613L98.475 207.037" fill="#0A0A0A"/>
<path d="M135.775 212.965L99.2345 137.639L51.2555 137.636C40.0133 136.844 34.8645 131.304 35.0283 124.151C35.1898 117.089 39.1667 110.113 46.9855 110.113H111.653C117.438 110.22 121.989 115.968 124.135 120.8L154.512 208.354" fill="#262626"/>
<path d="M31.7559 110.199C31.7559 110.199 29.6251 122.693 33.0026 129.64C37.2192 138.312 53.0258 137.636 53.0258 137.636L52.1351 110.113L31.7559 110.199Z" fill="#262626"/>
<path d="M125.51 109.954L91.6186 103.639C90.2063 103.376 88.8907 102.797 87.7935 101.955C86.6962 101.114 85.8527 100.037 85.341 98.8242L72.011 67.2397C71.6051 66.2918 71.4115 65.2811 71.4413 64.2657C71.4711 63.2503 71.7237 62.2502 72.1846 61.3229C72.6455 60.3955 73.3056 59.5592 74.1271 58.8619C74.9485 58.1647 75.9151 57.6202 76.9712 57.2598C78.0274 56.8994 79.1523 56.7302 80.2814 56.7619C81.4105 56.7936 82.5215 57.0255 83.5506 57.4444C84.5797 57.8633 85.5066 58.4609 86.2781 59.2029C87.0496 59.9448 87.6505 60.8165 88.0462 61.7679L99.7069 89.3956L128.991 94.8517C128.991 94.8517 126.098 110.063 125.51 109.954Z" fill="#367CFF"/>
<path d="M86.311 75.2603C85.9198 79.3948 83.1455 105.189 82.7679 110.281H31.7782C31.4852 105.688 30.5341 86.1876 29.423 77.206C28.3627 68.6352 27.9779 63.7442 29.1994 61.0809C31.3536 56.3831 36.7446 54.6928 41.3883 54.1275C44.2236 53.7825 48.4883 53.535 48.4883 53.535C48.4883 53.535 48.8496 60.1032 57.4598 60.4688C69.1806 60.965 68.398 53.535 68.456 53.535C70.3548 53.535 80.6906 54.7767 83.275 56.2912C86.9255 58.4307 88.0041 61.3459 88.0468 64.0244C88.0959 67.1086 86.7547 70.5714 86.311 75.2603Z" fill="#367CFF"/>
<path d="M84.3071 96.3367H84.2949C84.2759 96.3353 84.2574 96.3305 84.2404 96.3227C84.2234 96.3148 84.2084 96.304 84.1961 96.2909C84.1837 96.2779 84.1744 96.2627 84.1686 96.2464C84.1628 96.23 84.1606 96.2128 84.1622 96.1957L85.4859 81.8977C85.487 81.8805 85.4919 81.8636 85.5005 81.8482C85.509 81.8327 85.521 81.819 85.5356 81.8078C85.5503 81.7967 85.5673 81.7883 85.5857 81.7832C85.604 81.7782 85.6233 81.7765 85.6424 81.7784C85.6614 81.7798 85.68 81.7846 85.6969 81.7924C85.7139 81.8003 85.729 81.8111 85.7413 81.8242C85.7536 81.8373 85.7629 81.8524 85.7688 81.8688C85.7746 81.8851 85.7767 81.9023 85.7751 81.9194L84.4514 96.2174C84.4483 96.2499 84.4318 96.2802 84.4051 96.3023C84.3783 96.3244 84.3434 96.3366 84.3071 96.3367Z" fill="#0C0C0C"/>
<path d="M108.591 104.918L119.779 73.9938C119.976 73.4504 120.359 72.9769 120.873 72.6411C121.387 72.3052 122.006 72.1244 122.642 72.1244H171.127C171.602 72.1244 172.07 72.2255 172.494 72.4195C172.917 72.6135 173.283 72.8948 173.563 73.2405C173.842 73.5862 174.026 73.9864 174.1 74.4084C174.174 74.8304 174.137 75.2622 173.99 75.6685L159.897 106.594C159.701 107.137 159.318 107.611 158.804 107.946C158.29 108.282 157.67 108.463 157.035 108.463H111.454C110.979 108.463 110.51 108.362 110.087 108.168C109.663 107.974 109.297 107.693 109.017 107.347C108.738 107.001 108.554 106.601 108.48 106.178C108.406 105.756 108.444 105.324 108.591 104.918Z" fill="#292A2E"/>
<path d="M108.591 104.918L119.779 73.9938C119.976 73.4504 120.359 72.9769 120.873 72.6411C121.387 72.3052 122.006 72.1244 122.642 72.1244H171.127C171.602 72.1244 172.07 72.2255 172.494 72.4195C172.917 72.6135 173.283 72.8948 173.563 73.2405C173.842 73.5862 174.026 73.9864 174.1 74.4084C174.174 74.8304 174.137 75.2622 173.99 75.6685L159.897 106.594C159.701 107.137 159.318 107.611 158.804 107.946C158.29 108.282 157.67 108.463 157.035 108.463H111.454C110.979 108.463 110.51 108.362 110.087 108.168C109.663 107.974 109.297 107.693 109.017 107.347C108.738 107.001 108.554 106.601 108.48 106.178C108.406 105.756 108.444 105.324 108.591 104.918Z" fill="#292A2E"/>
<path d="M117.718 105.954H87.2057C86.4455 105.954 85.8292 106.509 85.8292 107.192V107.224C85.8292 107.908 86.4455 108.462 87.2057 108.462H117.718C118.478 108.462 119.094 107.908 119.094 107.224V107.192C119.094 106.509 118.478 105.954 117.718 105.954Z" fill="#292A2E"/>
<path d="M117.718 105.954H87.2057C86.4455 105.954 85.8292 106.509 85.8292 107.192V107.224C85.8292 107.908 86.4455 108.462 87.2057 108.462H117.718C118.478 108.462 119.094 107.908 119.094 107.224V107.192C119.094 106.509 118.478 105.954 117.718 105.954Z" fill="#292A2E"/>
<path d="M139.838 96.1004C142.479 96.1004 144.619 94.1759 144.619 91.8019C144.619 89.4279 142.479 87.5034 139.838 87.5034C137.198 87.5034 135.058 89.4279 135.058 91.8019C135.058 94.1759 137.198 96.1004 139.838 96.1004Z" fill="white"/>
<path d="M106.041 97.674L98.4259 95.2739L99.519 95.206C99.8714 95.1778 100.199 95.0303 100.435 94.7934C100.671 94.5564 100.798 94.2477 100.791 93.9296C100.781 93.7656 100.734 93.6051 100.652 93.4581C100.571 93.311 100.457 93.1803 100.318 93.0741C100.178 92.9679 100.016 92.8883 99.8418 92.8402C99.6671 92.7922 99.4834 92.7766 99.3018 92.7945L85.8292 94.0818L86.1777 97.9748C86.2864 99.1839 86.7942 100.336 87.6361 101.284C88.4779 102.232 89.6154 102.932 90.9027 103.295L96.7371 104.929C97.0384 105.019 97.3652 105.013 97.662 104.912C97.9588 104.81 98.2076 104.62 98.366 104.372C98.5038 104.146 98.5576 103.886 98.5196 103.631C98.4815 103.375 98.3537 103.137 98.1546 102.951C98.1675 102.943 98.1784 102.933 98.1866 102.921C98.1949 102.908 98.2002 102.895 98.2024 102.881C98.2046 102.867 98.2036 102.852 98.1995 102.839C98.1953 102.825 98.188 102.812 98.1781 102.801L99.2527 103.104C99.5881 103.205 99.9537 103.188 100.276 103.057C100.598 102.925 100.852 102.688 100.987 102.394C101.098 102.127 101.1 101.834 100.994 101.566C100.887 101.298 100.679 101.072 100.406 100.929C100.419 100.923 100.43 100.915 100.439 100.905L100.881 101.029C101.183 101.12 101.509 101.113 101.806 101.012C102.103 100.91 102.352 100.72 102.51 100.472C102.677 100.198 102.72 99.876 102.629 99.5742C102.538 99.2724 102.321 99.0139 102.022 98.853C102.025 98.845 102.026 98.8367 102.026 98.8284L105.198 99.8278C105.355 99.8791 105.523 99.9018 105.69 99.8945C105.858 99.8873 106.022 99.8503 106.173 99.7856C106.325 99.7209 106.461 99.6299 106.573 99.5178C106.685 99.4057 106.771 99.2747 106.827 99.1324C106.882 98.9902 106.906 98.8394 106.896 98.6889C106.886 98.5384 106.843 98.3911 106.77 98.2556C106.696 98.1201 106.594 97.999 106.468 97.8993C106.342 97.7997 106.196 97.7234 106.037 97.675L106.041 97.674Z" fill="#E98862"/>
<path opacity="0.2" d="M101.906 98.9389C101.891 98.9388 101.877 98.9365 101.863 98.9321L98.7955 97.9291C98.764 97.9187 98.7384 97.8975 98.7243 97.8701C98.7102 97.8427 98.7088 97.8114 98.7203 97.7831C98.7319 97.7548 98.7555 97.7317 98.7859 97.7191C98.8164 97.7064 98.8512 97.7051 98.8827 97.7155L101.95 98.7185C101.978 98.7276 102.002 98.7453 102.017 98.7684C102.032 98.7916 102.037 98.8187 102.032 98.845C102.027 98.8714 102.011 98.8952 101.988 98.9124C101.966 98.9296 101.937 98.9389 101.907 98.9389H101.906Z" fill="#0A0A0A"/>
<path opacity="0.2" d="M100.355 100.944C100.341 100.944 100.326 100.942 100.313 100.938L97.895 100.166C97.879 100.161 97.8642 100.154 97.8515 100.144C97.8388 100.134 97.8284 100.122 97.821 100.108C97.8136 100.095 97.8092 100.08 97.8083 100.065C97.8073 100.05 97.8097 100.035 97.8153 100.02C97.8209 100.006 97.8296 99.993 97.8409 99.9818C97.8523 99.9706 97.866 99.9616 97.8813 99.9552C97.8965 99.9488 97.9131 99.9453 97.9299 99.9448C97.9467 99.9442 97.9635 99.9467 97.9792 99.9521L100.397 100.723C100.425 100.732 100.449 100.75 100.464 100.773C100.479 100.796 100.485 100.823 100.48 100.85C100.474 100.876 100.459 100.9 100.436 100.917C100.414 100.935 100.385 100.944 100.355 100.944Z" fill="#0A0A0A"/>
<path opacity="0.2" d="M98.0783 102.979C98.0629 102.979 98.0476 102.976 98.0332 102.972L96.9006 102.583C96.8693 102.572 96.8441 102.551 96.8304 102.523C96.8167 102.496 96.8158 102.465 96.8277 102.436C96.8397 102.408 96.8636 102.386 96.8943 102.373C96.9249 102.361 96.9596 102.36 96.991 102.371L98.1236 102.759C98.1513 102.769 98.1744 102.786 98.189 102.81C98.2035 102.833 98.2086 102.86 98.2032 102.886C98.1979 102.912 98.1824 102.936 98.1597 102.953C98.1369 102.97 98.1082 102.979 98.0785 102.979H98.0783Z" fill="#0A0A0A"/>
<path d="M91.7923 91.7779L59.8467 91.7586L47.7615 65.2506L29.7332 72.0662L44.8109 103.527L44.9581 103.84C45.6958 105.37 46.9384 106.658 48.5175 107.531C50.0967 108.404 51.9361 108.819 53.7867 108.721L92.2746 106.677L91.7923 91.7779Z" fill="#367CFF"/>
<path d="M53.2578 108.866C51.4669 108.863 49.7157 108.391 48.2182 107.508C46.7207 106.624 45.5419 105.368 44.8257 103.892L44.6781 103.579L31.8293 76.7725L32.0959 76.6681L45.092 103.789C45.8212 105.292 47.0446 106.557 48.5975 107.415C50.1503 108.274 51.9583 108.684 53.7782 108.591L92.1253 106.554L91.6502 91.909L59.7489 91.8896L50.4556 71.5076L50.7245 71.4089L59.9431 91.6285L91.9322 91.6481L92.4239 106.8L92.283 106.807L53.7962 108.851C53.6165 108.861 53.4361 108.866 53.2578 108.866Z" fill="#0C0C0C"/>
<path d="M17.7255 110.966L5.474 219.948L6.05188 220L18.3034 111.018L17.7255 110.966Z" fill="#494949"/>
<path d="M68.3441 110.966L56.0926 219.948L56.6705 220L68.922 111.018L68.3441 110.966Z" fill="#494949"/>
<path d="M173.891 110.964L173.313 111.017L185.556 220L186.134 219.947L173.891 110.964Z" fill="#494949"/>
<path d="M184.931 108.851H7.48719C6.17295 108.851 5.10754 109.809 5.10754 110.991C5.10754 112.172 6.17295 113.13 7.48719 113.13H184.931C186.245 113.13 187.311 112.172 187.311 110.991C187.311 109.809 186.245 108.851 184.931 108.851Z" fill="#292A2E"/>
<path opacity="0.8" d="M184.931 108.851H7.48719C6.17295 108.851 5.10754 109.809 5.10754 110.991C5.10754 112.172 6.17295 113.13 7.48719 113.13H184.931C186.245 113.13 187.311 112.172 187.311 110.991C187.311 109.809 186.245 108.851 184.931 108.851Z" fill="white"/>
<path d="M184.931 113.391H7.48832C7.13535 113.395 6.78517 113.335 6.45801 113.216C6.13085 113.097 5.83321 112.92 5.58232 112.697C5.33143 112.474 5.13225 112.208 4.99632 111.915C4.86039 111.622 4.79041 111.308 4.79041 110.991C4.79041 110.673 4.86039 110.359 4.99632 110.066C5.13225 109.773 5.33143 109.508 5.58232 109.284C5.83321 109.061 6.13085 108.885 6.45801 108.766C6.78517 108.646 7.13535 108.587 7.48832 108.59H184.931C185.284 108.587 185.634 108.646 185.961 108.766C186.289 108.885 186.586 109.061 186.837 109.284C187.088 109.508 187.287 109.773 187.423 110.066C187.559 110.359 187.629 110.673 187.629 110.991C187.629 111.308 187.559 111.622 187.423 111.915C187.287 112.208 187.088 112.474 186.837 112.697C186.586 112.92 186.289 113.097 185.961 113.216C185.634 113.335 185.284 113.395 184.931 113.391ZM7.48832 109.112C7.2119 109.109 6.93758 109.156 6.68127 109.249C6.42495 109.342 6.19172 109.48 5.9951 109.655C5.79849 109.829 5.64239 110.037 5.53585 110.267C5.42931 110.496 5.37445 110.742 5.37445 110.991C5.37445 111.239 5.42931 111.485 5.53585 111.715C5.64239 111.944 5.79849 112.152 5.9951 112.327C6.19172 112.502 6.42495 112.64 6.68127 112.733C6.93758 112.826 7.2119 112.872 7.48832 112.869H184.931C185.208 112.872 185.482 112.826 185.738 112.733C185.994 112.64 186.228 112.502 186.424 112.327C186.621 112.152 186.777 111.944 186.884 111.715C186.99 111.485 187.045 111.239 187.045 110.991C187.045 110.742 186.99 110.496 186.884 110.267C186.777 110.037 186.621 109.829 186.424 109.655C186.228 109.48 185.994 109.342 185.738 109.249C185.482 109.156 185.208 109.109 184.931 109.112H7.48832Z" fill="#292A2E"/>
<path d="M184.931 108.851H60.0407C58.7265 108.851 57.6611 109.809 57.6611 110.991C57.6611 112.172 58.7265 113.13 60.0407 113.13H184.931C186.245 113.13 187.31 112.172 187.31 110.991C187.31 109.809 186.245 108.851 184.931 108.851Z" fill="white"/>
<path d="M184.931 113.391H60.0407C59.3374 113.385 58.6654 113.129 58.1707 112.68C57.676 112.23 57.3985 111.623 57.3985 110.991C57.3985 110.358 57.676 109.751 58.1707 109.302C58.6654 108.852 59.3374 108.597 60.0407 108.59H184.931C185.284 108.587 185.634 108.646 185.961 108.766C186.289 108.885 186.586 109.061 186.837 109.284C187.088 109.508 187.287 109.773 187.423 110.066C187.559 110.359 187.629 110.673 187.629 110.991C187.629 111.308 187.559 111.622 187.423 111.915C187.287 112.208 187.088 112.474 186.837 112.697C186.586 112.92 186.289 113.097 185.961 113.216C185.634 113.335 185.284 113.395 184.931 113.391ZM60.0407 109.112C59.4909 109.118 58.9658 109.319 58.5793 109.67C58.1929 110.022 57.9761 110.496 57.9761 110.991C57.9761 111.485 58.1929 111.96 58.5793 112.311C58.9658 112.663 59.4909 112.863 60.0407 112.869H184.931C185.208 112.872 185.482 112.826 185.738 112.733C185.994 112.64 186.228 112.502 186.424 112.327C186.621 112.152 186.777 111.944 186.884 111.715C186.99 111.485 187.045 111.239 187.045 110.991C187.045 110.742 186.99 110.496 186.884 110.267C186.777 110.037 186.621 109.829 186.424 109.655C186.228 109.48 185.994 109.342 185.738 109.249C185.482 109.156 185.208 109.109 184.931 109.112H60.0407Z" fill="#292A2E"/>
<path d="M189.717 185.257C189.679 185.257 189.641 185.25 189.606 185.237C189.571 185.224 189.539 185.205 189.512 185.18C189.103 184.813 188.436 178.062 186.639 157.964C185.904 149.741 185.21 141.973 184.703 137.253C184.667 136.916 184.521 136.877 184.474 136.864C183.78 136.675 181.671 138.171 180.493 139.481C180.445 139.535 180.374 139.569 180.298 139.576C180.221 139.584 180.144 139.563 180.084 139.52C180.024 139.476 179.986 139.413 179.978 139.344C179.97 139.275 179.993 139.206 180.041 139.152C180.82 138.286 183.358 136.016 184.641 136.363C184.899 136.433 185.222 136.636 185.281 137.203C185.788 141.927 186.483 149.697 187.218 157.923C188.31 170.136 189.546 183.972 189.953 184.843C189.984 184.882 190.003 184.928 190.007 184.976C190.011 185.024 190 185.072 189.975 185.115C189.951 185.158 189.914 185.193 189.868 185.218C189.823 185.244 189.771 185.257 189.717 185.257Z" fill="#494949"/>
<path d="M183.957 145.915C188.776 142.442 190.373 137.035 187.524 133.84C184.675 130.644 178.459 130.869 173.64 134.343C168.821 137.816 167.224 143.222 170.073 146.418C172.922 149.614 179.138 149.388 183.957 145.915Z" fill="#0CBC8B"/>
<path opacity="0.2" d="M183.957 145.915C188.776 142.442 190.373 137.035 187.524 133.84C184.675 130.644 178.459 130.869 173.64 134.343C168.821 137.816 167.224 143.222 170.073 146.418C172.922 149.614 179.138 149.388 183.957 145.915Z" fill="white"/>
<path d="M171.424 147.231C171.396 147.231 171.369 147.224 171.346 147.21C171.323 147.197 171.304 147.178 171.293 147.156C171.281 147.133 171.276 147.108 171.28 147.084C171.283 147.059 171.295 147.036 171.312 147.017L185.046 132.125C185.071 132.098 185.106 132.081 185.144 132.078C185.183 132.075 185.221 132.086 185.251 132.108C185.28 132.13 185.299 132.162 185.303 132.196C185.306 132.231 185.294 132.265 185.27 132.292L171.536 147.184C171.522 147.198 171.505 147.21 171.486 147.218C171.466 147.226 171.445 147.231 171.424 147.231Z" fill="white"/>
<path d="M192.712 182.064C192.666 182.064 192.62 182.054 192.579 182.035C192.538 182.016 192.503 181.988 192.476 181.955C192.449 181.921 192.432 181.881 192.425 181.84C192.419 181.799 192.423 181.757 192.438 181.717L197.598 168.377C197.749 167.985 198.008 167.634 198.35 167.355C198.692 167.077 199.107 166.88 199.555 166.782C200.004 166.685 200.473 166.69 200.919 166.798C201.364 166.906 201.773 167.112 202.107 167.399L204.835 169.741C204.89 169.789 204.923 169.855 204.924 169.924C204.926 169.993 204.897 170.06 204.844 170.111C204.791 170.161 204.718 170.19 204.641 170.191C204.564 170.193 204.489 170.167 204.433 170.119L201.706 167.776C201.442 167.55 201.12 167.387 200.768 167.302C200.416 167.217 200.046 167.213 199.692 167.289C199.337 167.366 199.01 167.522 198.74 167.742C198.47 167.962 198.266 168.239 198.146 168.549L192.987 181.889C192.967 181.94 192.93 181.985 192.881 182.016C192.832 182.048 192.773 182.065 192.712 182.064Z" fill="#494949"/>
<path d="M212.454 177.127C216.025 174.585 215.813 168.995 211.98 164.64C208.147 160.286 202.144 158.816 198.573 161.358C195.001 163.9 195.214 169.491 199.047 173.845C202.88 178.199 208.883 179.669 212.454 177.127Z" fill="#0CBC8B"/>
<path d="M187.375 184.406C187.31 184.406 187.246 184.386 187.195 184.35C187.144 184.314 187.108 184.263 187.093 184.206L178.434 151.657C178.374 151.435 178.248 151.232 178.069 151.071C177.89 150.909 177.665 150.795 177.419 150.741C177.172 150.687 176.914 150.696 176.672 150.765C176.431 150.834 176.215 150.962 176.049 151.135L173.38 153.908C173.355 153.934 173.325 153.956 173.291 153.972C173.256 153.987 173.219 153.997 173.181 153.999C173.143 154.002 173.104 153.998 173.068 153.987C173.031 153.976 172.997 153.959 172.968 153.936C172.939 153.914 172.916 153.886 172.899 153.855C172.881 153.825 172.871 153.791 172.869 153.756C172.866 153.722 172.871 153.688 172.884 153.655C172.896 153.622 172.915 153.592 172.941 153.566L175.609 150.793C175.845 150.548 176.152 150.366 176.496 150.267C176.839 150.169 177.206 150.157 177.557 150.234C177.907 150.311 178.227 150.473 178.482 150.703C178.736 150.933 178.915 151.222 178.999 151.537L187.656 184.085C187.674 184.152 187.661 184.223 187.62 184.282C187.58 184.341 187.516 184.383 187.441 184.399C187.419 184.403 187.397 184.406 187.375 184.406Z" fill="#494949"/>
<path d="M184.18 161.139C185.233 155.666 182.448 150.665 177.959 149.967C173.471 149.269 168.98 153.139 167.927 158.611C166.875 164.084 169.66 169.086 174.148 169.783C178.636 170.481 183.128 166.611 184.18 161.139Z" fill="#0CBC8B"/>
<path d="M189.717 185.257C189.705 185.257 189.694 185.256 189.682 185.255C189.644 185.251 189.607 185.24 189.574 185.223C189.541 185.206 189.512 185.184 189.488 185.157C189.465 185.129 189.447 185.099 189.437 185.065C189.427 185.032 189.424 184.998 189.429 184.964L194.957 144.604C195.017 144.165 195.218 143.75 195.534 143.41C195.85 143.07 196.268 142.82 196.739 142.689C197.209 142.558 197.712 142.551 198.186 142.671C198.661 142.791 199.086 143.031 199.413 143.363L205.731 149.798C205.782 149.85 205.808 149.918 205.804 149.987C205.799 150.056 205.764 150.121 205.706 150.167C205.648 150.213 205.572 150.236 205.496 150.232C205.419 150.227 205.347 150.196 205.296 150.144L198.977 143.709C198.725 143.452 198.396 143.266 198.029 143.174C197.663 143.081 197.274 143.086 196.91 143.187C196.547 143.289 196.223 143.482 195.979 143.745C195.735 144.008 195.58 144.328 195.534 144.668L190.006 185.028C189.997 185.091 189.963 185.149 189.91 185.191C189.857 185.233 189.788 185.257 189.717 185.257Z" fill="#494949"/>
<path d="M212.212 153.374C214.417 149.79 211.823 144.706 206.419 142.018C201.014 139.33 194.846 140.056 192.641 143.64C190.436 147.224 193.03 152.308 198.435 154.996C203.839 157.684 210.008 156.958 212.212 153.374Z" fill="#0CBC8B"/>
<path opacity="0.2" d="M212.454 177.127C216.025 174.585 215.813 168.995 211.98 164.64C208.147 160.286 202.144 158.816 198.573 161.358C195.001 163.9 195.214 169.491 199.047 173.845C202.88 178.199 208.883 179.669 212.454 177.127Z" fill="white"/>
<path opacity="0.5" d="M184.18 161.139C185.233 155.666 182.448 150.665 177.959 149.967C173.471 149.269 168.98 153.139 167.927 158.611C166.875 164.084 169.66 169.086 174.148 169.783C178.636 170.481 183.128 166.611 184.18 161.139Z" fill="white"/>
<path opacity="0.5" d="M212.212 153.374C214.417 149.79 211.823 144.706 206.419 142.018C201.014 139.33 194.846 140.056 192.641 143.64C190.436 147.224 193.03 152.308 198.435 154.996C203.839 157.684 210.008 156.958 212.212 153.374Z" fill="white"/>
<path d="M196.788 219.502H182.646L180.302 178.817H199.131L196.788 219.502Z" fill="#292A2E"/>
<path opacity="0.3" d="M196.788 219.502H182.646L180.302 178.817H199.131L196.788 219.502Z" fill="white"/>
<path d="M212.454 177.256C212.433 177.256 212.411 177.251 212.391 177.243C212.372 177.234 212.354 177.222 212.341 177.206L198.459 161.437C198.435 161.41 198.424 161.376 198.428 161.341C198.433 161.307 198.452 161.276 198.483 161.254C198.513 161.233 198.551 161.223 198.589 161.227C198.628 161.231 198.663 161.248 198.687 161.275L212.568 177.044C212.585 177.063 212.596 177.086 212.599 177.111C212.602 177.135 212.597 177.16 212.585 177.182C212.573 177.204 212.555 177.223 212.532 177.236C212.509 177.249 212.482 177.256 212.454 177.256Z" fill="white"/>
<path d="M211.289 154.638C211.258 154.637 211.228 154.628 211.203 154.611L193.44 142.949C193.409 142.928 193.388 142.898 193.382 142.863C193.376 142.829 193.386 142.794 193.408 142.766C193.431 142.738 193.465 142.72 193.503 142.714C193.541 142.709 193.58 142.717 193.611 142.738L211.375 154.401C211.399 154.417 211.417 154.44 211.426 154.466C211.435 154.492 211.435 154.521 211.425 154.547C211.416 154.572 211.397 154.595 211.372 154.611C211.348 154.627 211.318 154.636 211.288 154.636L211.289 154.638Z" fill="white"/>
<path d="M173.426 169.613C173.414 169.613 173.401 169.612 173.389 169.609C173.352 169.6 173.32 169.578 173.301 169.548C173.282 169.518 173.276 169.482 173.286 169.449L178.941 150.399C178.951 150.366 178.976 150.339 179.009 150.322C179.042 150.305 179.081 150.301 179.117 150.31C179.154 150.318 179.185 150.34 179.205 150.369C179.224 150.398 179.23 150.433 179.221 150.466L173.567 169.516C173.558 169.544 173.54 169.569 173.515 169.586C173.489 169.604 173.458 169.613 173.426 169.613Z" fill="white"/>
<path d="M203.616 219.869H0.20329C0.149374 219.869 0.0976664 219.849 0.0595422 219.815C0.021418 219.781 0 219.734 0 219.686C0 219.637 0.021418 219.591 0.0595422 219.557C0.0976664 219.522 0.149374 219.503 0.20329 219.503H203.615C203.669 219.503 203.721 219.522 203.759 219.557C203.797 219.591 203.818 219.637 203.818 219.686C203.818 219.734 203.797 219.781 203.759 219.815C203.721 219.849 203.669 219.869 203.615 219.869H203.616Z" fill="#292A2E"/>
<g opacity="0.65">
<path opacity="0.65" d="M203.616 219.869H0.20329C0.149374 219.869 0.0976664 219.849 0.0595422 219.815C0.021418 219.781 0 219.734 0 219.686C0 219.637 0.021418 219.591 0.0595422 219.557C0.0976664 219.522 0.149374 219.503 0.20329 219.503H203.615C203.669 219.503 203.721 219.522 203.759 219.557C203.797 219.591 203.818 219.637 203.818 219.686C203.818 219.734 203.797 219.781 203.759 219.815C203.721 219.849 203.669 219.869 203.615 219.869H203.616Z" fill="#292A2E"/>
</g>
</g>
<defs>
<clipPath id="clip0_101_19">
<rect width="215" height="220" fill="white"/>
</clipPath>
</defs>
</svg>
