<svg width="25" height="25" viewBox="0 0 25 25" fill="none" xmlns="http://www.w3.org/2000/svg">
<path d="M12.5 0C9.18594 0.00372667 6.00868 1.32188 3.66528 3.66528C1.32188 6.00868 0.00372667 9.18594 0 12.5C0.00563442 15.8135 1.3244 18.9896 3.66739 21.3326C6.01037 23.6756 9.18652 24.9944 12.5 25C15.8152 25 18.9946 23.683 21.3388 21.3388C23.683 18.9946 25 15.8152 25 12.5C25 9.18479 23.683 6.00537 21.3388 3.66117C18.9946 1.31696 15.8152 0 12.5 0V0ZM20.1031 19.7128C19.401 18.2969 18.3172 17.1054 16.974 16.2727C15.6308 15.4399 14.0816 14.9991 12.5012 15C10.9208 15.0009 9.37204 15.4433 8.02972 16.2775C6.68741 17.1117 5.60491 18.3044 4.90436 19.7211C3.03509 17.7826 1.99348 15.1929 2 12.5C2 9.71523 3.10625 7.04451 5.07538 5.07538C7.04451 3.10625 9.71523 2 12.5 2C15.2848 2 17.9555 3.10625 19.9246 5.07538C21.8938 7.04451 23 9.71523 23 12.5C23.0062 15.189 21.9675 17.7752 20.1031 19.7128V19.7128ZM12.5 5C11.61 5 10.74 5.26392 9.99993 5.75839C9.25991 6.25285 8.68314 6.95566 8.34254 7.77792C8.00195 8.60019 7.91283 9.50499 8.08647 10.3779C8.2601 11.2508 8.68868 12.0526 9.31802 12.682C9.94736 13.3113 10.7492 13.7399 11.6221 13.9135C12.495 14.0872 13.3998 13.9981 14.2221 13.6575C15.0443 13.3169 15.7471 12.7401 16.2416 12.0001C16.7361 11.26 17 10.39 17 9.5C17 8.90905 16.8836 8.32389 16.6575 7.77792C16.4313 7.23196 16.0998 6.73588 15.682 6.31802C15.2641 5.90016 14.768 5.56869 14.2221 5.34254C13.6761 5.1164 13.0909 5 12.5 5V5Z" fill="black"/>
</svg>
